<?xml version="1.0" encoding="UTF-8"?>
<svg width="28px" height="28px" viewBox="0 0 28 28" version="1.1" xmlns="http://www.w3.org/2000/svg" xmlns:xlink="http://www.w3.org/1999/xlink">
    <!-- Generator: sketchtool 53.2 (72643) - https://sketchapp.com -->
    <title>2D7F0996-891B-4A06-921C-BC4660079CD4</title>
    <desc>Created with sketchtool.</desc>
    <defs>
        <circle id="path-1" cx="14" cy="14" r="14"></circle>
        <linearGradient x1="9.26734375%" y1="9.26734375%" x2="90.7326563%" y2="90.7326563%" id="linearGradient-3">
            <stop stop-color="#39BAEB" offset="0%"></stop>
            <stop stop-color="#1F9DCA" offset="100%"></stop>
        </linearGradient>
    </defs>
    <g id="symbols" stroke="none" stroke-width="1" fill="none" fill-rule="evenodd">
        <g id="assets/icons/-coins-28px/--bitshares">
            <mask id="mask-2" fill="white">
                <use xlink:href="#path-1"></use>
            </mask>
            <use id="Oval" fill="#D8D8D8" xlink:href="#path-1"></use>
            <g id="BitShares" mask="url(#mask-2)">
                <path d="M19.140625,28 L8.859375,28 C3.959375,28 0,24.040625 0,19.140625 L0,8.859375 C0,3.959375 3.959375,0 8.859375,0 L19.140625,0 C24.040625,0 28,3.959375 28,8.859375 L28,19.140625 C28,24.040625 24.040625,28 19.140625,28 Z" id="Path" fill="url(#linearGradient-3)"></path>
                <g id="Group" transform="translate(7.437500, 3.281250)">
                    <g opacity="0.2" transform="translate(0.437500, 0.437500)" fill="#000000" id="Path">
                        <path d="M0.065625,0.04375 C0.415625,0.35 0.721875,0.634375 1.05,0.91875 C2.7125,2.384375 4.375,3.871875 6.015625,5.3375 C6.08125,5.403125 6.125,5.46875 6.125,5.55625 C6.125,7.74375 6.125,9.909375 6.125,12.096875 C6.125,12.20625 6.103125,12.25 5.99375,12.271875 C5.753125,12.3375 5.534375,12.446875 5.29375,12.534375 C5.29375,12.534375 5.25,12.490625 5.228125,12.46875 C3.5,10.784375 1.815625,9.1 0.13125,7.39375 C0.0875,7.35 0.065625,7.284375 0.065625,7.240625 C0.065625,4.878125 0.065625,2.515625 0.065625,0.153125 C0.04375,0.13125 0.065625,0.109375 0.065625,0.04375 Z"></path>
                        <path d="M4.55,13.25625 C4.4625,13.496875 4.353125,13.78125 4.24375,14.04375 C4.221875,14.0875 4.178125,14.109375 4.134375,14.109375 C4.003125,14.109375 3.85,14.109375 3.71875,14.109375 C2.559375,14.109375 1.4,14.109375 0.240625,14.109375 C0.196875,14.109375 0.13125,14.109375 0.065625,14.109375 C0.065625,12.315625 0.065625,10.521875 0.065625,8.728125 C1.553125,10.259375 3.0625,11.76875 4.55,13.25625 Z"></path>
                        <path d="M2.296875,19.490625 C3.28125,18.50625 4.24375,17.521875 5.20625,16.559375 C5.5125,16.690625 5.796875,16.8 6.103125,16.93125 C6.103125,18.2875 6.103125,19.665625 6.103125,21.065625 C4.659375,20.95625 3.390625,20.43125 2.296875,19.490625 Z"></path>
                        <path d="M10.85,19.490625 C9.75625,20.43125 8.4875,20.95625 7.04375,21.065625 C7.04375,21 7.04375,20.95625 7.04375,20.9125 C7.04375,19.621875 7.04375,18.33125 7.04375,17.0625 C7.04375,16.953125 7.065625,16.909375 7.175,16.8875 C7.415625,16.8 7.634375,16.690625 7.853125,16.603125 C7.896875,16.58125 7.9625,16.58125 7.984375,16.603125 C8.925,17.54375 9.865625,18.50625 10.85,19.490625 Z"></path>
                        <path d="M0.065625,15.028125 C0.13125,15.028125 0.175,15.028125 0.21875,15.028125 C1.509375,15.028125 2.8,15.028125 4.090625,15.028125 C4.2,15.028125 4.24375,15.05 4.2875,15.159375 C4.375,15.4 4.484375,15.640625 4.571875,15.88125 C3.609375,16.84375 2.646875,17.828125 1.6625,18.8125 C0.7,17.740625 0.196875,16.471875 0.065625,15.028125 Z"></path>
                        <path d="M10.828125,9.646875 C9.84375,10.63125 8.88125,11.615625 7.91875,12.578125 C7.634375,12.46875 7.35,12.38125 7.0875,12.271875 C7.065625,12.25 7.04375,12.20625 7.021875,12.184375 C7.021875,12.1625 7.021875,12.140625 7.021875,12.11875 C7.021875,10.828125 7.021875,9.559375 7.021875,8.26875 C7.021875,8.225 7.021875,8.18125 7.021875,8.115625 C8.4875,8.203125 9.734375,8.728125 10.828125,9.646875 Z"></path>
                        <path d="M11.484375,10.303125 C12.425,11.396875 12.95,12.665625 13.059375,14.109375 C11.659375,14.109375 10.28125,14.109375 8.925,14.109375 C8.79375,13.803125 8.684375,13.51875 8.575,13.25625 C9.5375,12.271875 10.5,11.309375 11.484375,10.303125 Z"></path>
                        <path d="M13.08125,15.028125 C12.971875,16.45 12.446875,17.696875 11.55,18.76875 C10.565625,17.784375 9.58125,16.8 8.61875,15.815625 C8.70625,15.596875 8.79375,15.334375 8.88125,15.09375 C8.903125,15.05 8.96875,15.028125 9.0125,15.028125 C9.3625,15.028125 9.690625,15.028125 10.040625,15.028125 C11.003125,15.028125 11.94375,15.028125 12.90625,15.028125 C12.95,15.028125 12.99375,15.028125 13.08125,15.028125 Z"></path>
                    </g>
                    <g fill="#FFFFFF" id="Path">
                        <path d="M0.065625,0.04375 C0.415625,0.35 0.721875,0.634375 1.05,0.91875 C2.7125,2.384375 4.375,3.871875 6.015625,5.3375 C6.08125,5.403125 6.125,5.46875 6.125,5.55625 C6.125,7.74375 6.125,9.909375 6.125,12.096875 C6.125,12.20625 6.103125,12.25 5.99375,12.271875 C5.753125,12.3375 5.534375,12.446875 5.29375,12.534375 C5.29375,12.534375 5.25,12.490625 5.228125,12.46875 C3.5,10.784375 1.815625,9.1 0.13125,7.39375 C0.0875,7.35 0.065625,7.284375 0.065625,7.240625 C0.065625,4.878125 0.065625,2.515625 0.065625,0.153125 C0.04375,0.13125 0.065625,0.109375 0.065625,0.04375 Z"></path>
                        <path d="M4.55,13.25625 C4.4625,13.496875 4.353125,13.78125 4.24375,14.04375 C4.221875,14.0875 4.178125,14.109375 4.134375,14.109375 C4.003125,14.109375 3.85,14.109375 3.71875,14.109375 C2.559375,14.109375 1.4,14.109375 0.240625,14.109375 C0.196875,14.109375 0.13125,14.109375 0.065625,14.109375 C0.065625,12.315625 0.065625,10.521875 0.065625,8.728125 C1.553125,10.259375 3.0625,11.76875 4.55,13.25625 Z"></path>
                        <path d="M2.296875,19.490625 C3.28125,18.50625 4.24375,17.521875 5.20625,16.559375 C5.5125,16.690625 5.796875,16.8 6.103125,16.93125 C6.103125,18.2875 6.103125,19.665625 6.103125,21.065625 C4.659375,20.95625 3.390625,20.43125 2.296875,19.490625 Z"></path>
                        <path d="M10.85,19.490625 C9.75625,20.43125 8.4875,20.95625 7.04375,21.065625 C7.04375,21 7.04375,20.95625 7.04375,20.9125 C7.04375,19.621875 7.04375,18.33125 7.04375,17.0625 C7.04375,16.953125 7.065625,16.909375 7.175,16.8875 C7.415625,16.8 7.634375,16.690625 7.853125,16.603125 C7.896875,16.58125 7.9625,16.58125 7.984375,16.603125 C8.925,17.54375 9.865625,18.50625 10.85,19.490625 Z"></path>
                        <path d="M0.065625,15.028125 C0.13125,15.028125 0.175,15.028125 0.21875,15.028125 C1.509375,15.028125 2.8,15.028125 4.090625,15.028125 C4.2,15.028125 4.24375,15.05 4.2875,15.159375 C4.375,15.4 4.484375,15.640625 4.571875,15.88125 C3.609375,16.84375 2.646875,17.828125 1.6625,18.8125 C0.7,17.740625 0.196875,16.471875 0.065625,15.028125 Z"></path>
                        <path d="M10.828125,9.646875 C9.84375,10.63125 8.88125,11.615625 7.91875,12.578125 C7.634375,12.46875 7.35,12.38125 7.0875,12.271875 C7.065625,12.25 7.04375,12.20625 7.021875,12.184375 C7.021875,12.1625 7.021875,12.140625 7.021875,12.11875 C7.021875,10.828125 7.021875,9.559375 7.021875,8.26875 C7.021875,8.225 7.021875,8.18125 7.021875,8.115625 C8.4875,8.203125 9.734375,8.728125 10.828125,9.646875 Z"></path>
                        <path d="M11.484375,10.303125 C12.425,11.396875 12.95,12.665625 13.059375,14.109375 C11.659375,14.109375 10.28125,14.109375 8.925,14.109375 C8.79375,13.803125 8.684375,13.51875 8.575,13.25625 C9.5375,12.271875 10.5,11.309375 11.484375,10.303125 Z"></path>
                        <path d="M13.08125,15.028125 C12.971875,16.45 12.446875,17.696875 11.55,18.76875 C10.565625,17.784375 9.58125,16.8 8.61875,15.815625 C8.70625,15.596875 8.79375,15.334375 8.88125,15.09375 C8.903125,15.05 8.96875,15.028125 9.0125,15.028125 C9.3625,15.028125 9.690625,15.028125 10.040625,15.028125 C11.003125,15.028125 11.94375,15.028125 12.90625,15.028125 C12.95,15.028125 12.99375,15.028125 13.08125,15.028125 Z"></path>
                    </g>
                </g>
            </g>
        </g>
    </g>
</svg>