<?xml version="1.0" encoding="UTF-8"?>
<svg width="28px" height="28px" viewBox="0 0 28 28" version="1.1" xmlns="http://www.w3.org/2000/svg" xmlns:xlink="http://www.w3.org/1999/xlink">
    <!-- Generator: sketchtool 53.2 (72643) - https://sketchapp.com -->
    <title>FE5B573B-276A-420E-A769-9EACA424B475</title>
    <desc>Created with sketchtool.</desc>
    <defs>
        <circle id="path-1" cx="14" cy="14" r="14"></circle>
        <linearGradient x1="9.26734375%" y1="9.26734375%" x2="90.7326563%" y2="90.7326563%" id="linearGradient-3">
            <stop stop-color="#2A8AC7" offset="0%"></stop>
            <stop stop-color="#1873AD" offset="100%"></stop>
        </linearGradient>
    </defs>
    <g id="symbols" stroke="none" stroke-width="1" fill="none" fill-rule="evenodd">
        <g id="assets/icons/-coins-28px/-stratis">
            <mask id="mask-2" fill="white">
                <use xlink:href="#path-1"></use>
            </mask>
            <use id="Oval" fill="#D8D8D8" xlink:href="#path-1"></use>
            <g id="Stratis" mask="url(#mask-2)">
                <path d="M19.140625,28 L8.859375,28 C3.959375,28 0,24.040625 0,19.140625 L0,8.859375 C0,3.959375 3.959375,0 8.859375,0 L19.140625,0 C24.040625,0 28,3.959375 28,8.859375 L28,19.140625 C28,24.040625 24.040625,28 19.140625,28 Z" id="Path" fill="url(#linearGradient-3)"></path>
                <g id="Group" transform="translate(4.375000, 5.031250)" fill-rule="nonzero">
                    <g opacity="0.2" transform="translate(0.437500, 0.437500)" fill="#000000" id="Shape">
                        <path d="M9.603125,17.9375 C9.515625,17.9375 9.45,17.915625 9.3625,17.871875 L0.284375,12.140625 C0.0875,12.009375 0.021875,11.746875 0.153125,11.528125 C0.284375,11.33125 0.546875,11.265625 0.765625,11.396875 L9.625,16.975 L18.309375,11.396875 L18.309375,9.821875 L9.7125,15.225 C9.559375,15.3125 9.384375,15.3125 9.23125,15.225 L0.284375,9.40625 C0.153125,9.31875 0.0875,9.1875 0.0875,9.034375 L0.0875,6.43125 C0.0875,6.409375 0.0875,6.3875 0.0875,6.365625 C0.0875,6.34375 0.0875,6.321875 0.109375,6.3 C0.13125,6.2125 0.196875,6.125 0.2625,6.08125 C0.2625,6.08125 0.284375,6.08125 0.284375,6.059375 L9.384375,0.0875 C9.5375,2.16840434e-15 9.7125,2.16840434e-15 9.865625,0.0875 L18.921875,6.08125 C19.053125,6.16875 19.11875,6.3 19.11875,6.453125 C19.11875,6.60625 19.03125,6.7375 18.921875,6.825 L9.865625,12.55625 C9.7125,12.64375 9.5375,12.64375 9.40625,12.55625 L0.9625,7.21875 L0.9625,8.79375 L9.49375,14.35 L18.484375,8.6625 C18.615625,8.575 18.790625,8.575 18.921875,8.640625 C19.053125,8.728125 19.140625,8.859375 19.140625,9.034375 L19.140625,11.6375 C19.140625,11.790625 19.075,11.921875 18.94375,12.009375 L9.84375,17.871875 C9.778125,17.915625 9.690625,17.9375 9.603125,17.9375 Z M1.334375,6.409375 L9.625,11.659375 L17.89375,6.409375 L9.625,0.9625 L1.334375,6.409375 Z"></path>
                    </g>
                    <path d="M9.603125,17.9375 C9.515625,17.9375 9.45,17.915625 9.3625,17.871875 L0.284375,12.140625 C0.0875,12.009375 0.021875,11.746875 0.153125,11.528125 C0.284375,11.33125 0.546875,11.265625 0.765625,11.396875 L9.625,16.975 L18.309375,11.396875 L18.309375,9.821875 L9.7125,15.225 C9.559375,15.3125 9.384375,15.3125 9.23125,15.225 L0.284375,9.40625 C0.153125,9.31875 0.0875,9.1875 0.0875,9.034375 L0.0875,6.43125 C0.0875,6.409375 0.0875,6.3875 0.0875,6.365625 C0.0875,6.34375 0.0875,6.321875 0.109375,6.3 C0.13125,6.2125 0.196875,6.125 0.2625,6.08125 C0.2625,6.08125 0.284375,6.08125 0.284375,6.059375 L9.384375,0.0875 C9.5375,2.16840434e-15 9.7125,2.16840434e-15 9.865625,0.0875 L18.921875,6.08125 C19.053125,6.16875 19.11875,6.3 19.11875,6.453125 C19.11875,6.60625 19.03125,6.7375 18.921875,6.825 L9.865625,12.55625 C9.7125,12.64375 9.5375,12.64375 9.40625,12.55625 L0.9625,7.21875 L0.9625,8.79375 L9.49375,14.35 L18.484375,8.6625 C18.615625,8.575 18.790625,8.575 18.921875,8.640625 C19.053125,8.728125 19.140625,8.859375 19.140625,9.034375 L19.140625,11.6375 C19.140625,11.790625 19.075,11.921875 18.94375,12.009375 L9.84375,17.871875 C9.778125,17.915625 9.690625,17.9375 9.603125,17.9375 Z M1.334375,6.409375 L9.625,11.659375 L17.89375,6.409375 L9.625,0.9625 L1.334375,6.409375 Z" id="Shape" fill="#FFFFFF"></path>
                </g>
            </g>
        </g>
    </g>
</svg>