<?xml version="1.0" encoding="UTF-8"?>
<svg width="28px" height="28px" viewBox="0 0 28 28" version="1.1" xmlns="http://www.w3.org/2000/svg" xmlns:xlink="http://www.w3.org/1999/xlink">
    <!-- Generator: sketchtool 53.2 (72643) - https://sketchapp.com -->
    <title>3722C334-646A-42A7-BFA5-1BAE906D8F8D</title>
    <desc>Created with sketchtool.</desc>
    <defs>
        <circle id="path-1" cx="14" cy="14" r="14"></circle>
        <linearGradient x1="9.26734375%" y1="9.26734375%" x2="90.7326563%" y2="90.7326563%" id="linearGradient-3">
            <stop stop-color="#FFD05B" offset="0%"></stop>
            <stop stop-color="#D08A29" offset="100%"></stop>
        </linearGradient>
        <linearGradient x1="9.26734375%" y1="9.26734375%" x2="90.7326563%" y2="90.7326563%" id="linearGradient-4">
            <stop stop-color="#AA8B54" offset="0%"></stop>
            <stop stop-color="#886C3C" offset="100%"></stop>
        </linearGradient>
        <linearGradient x1="9.26734375%" y1="9.26734375%" x2="90.7326563%" y2="90.7326563%" id="linearGradient-5">
            <stop stop-color="#41BAD3" offset="0%"></stop>
            <stop stop-color="#169CD8" offset="100%"></stop>
        </linearGradient>
        <linearGradient x1="90.7326563%" y1="90.7326563%" x2="9.26734375%" y2="9.26734375%" id="linearGradient-6">
            <stop stop-color="#6D1C56" offset="0%"></stop>
            <stop stop-color="#9B2F80" offset="100%"></stop>
        </linearGradient>
        <linearGradient x1="9.26734375%" y1="9.26734375%" x2="90.7326563%" y2="90.7326563%" id="linearGradient-7">
            <stop stop-color="#1D97D4" offset="0%"></stop>
            <stop stop-color="#047DB7" offset="100%"></stop>
        </linearGradient>
    </defs>
    <g id="symbols" stroke="none" stroke-width="1" fill="none" fill-rule="evenodd">
        <g id="assets/icons/-coins-28px/-suncontract">
            <mask id="mask-2" fill="white">
                <use xlink:href="#path-1"></use>
            </mask>
            <use id="Oval" fill="#D8D8D8" xlink:href="#path-1"></use>
            <g id="Zcash" mask="url(#mask-2)">
                <path d="M19.140625,28 L8.859375,28 C3.959375,28 0,24.040625 0,19.140625 L0,8.859375 C0,3.959375 3.959375,0 8.859375,0 L19.140625,0 C24.040625,0 28,3.959375 28,8.859375 L28,19.140625 C28,24.040625 24.040625,28 19.140625,28 Z" id="Path" fill="url(#linearGradient-3)"></path>
                <g id="Group" transform="translate(8.750000, 4.375000)">
                    <g opacity="0.2" transform="translate(0.437500, 0.437500)" fill="#000000" id="Path">
                        <path d="M4.090625,2.7125 C4.090625,1.815625 4.090625,1.028125 4.090625,0.196875 C5.140625,0.196875 6.146875,0.196875 7.240625,0.196875 C7.240625,1.00625 7.240625,1.815625 7.240625,2.690625 C8.53125,2.690625 9.734375,2.690625 11.06875,2.690625 C10.9375,3.89375 11.375,5.053125 10.45625,6.16875 C8.640625,8.378125 6.978125,10.71875 5.271875,12.99375 C5.25,13.015625 5.25,13.059375 5.228125,13.190625 C7.240625,13.190625 9.23125,13.190625 11.24375,13.190625 C11.24375,14.371875 11.24375,15.44375 11.24375,16.603125 C9.93125,16.603125 8.61875,16.603125 7.240625,16.603125 C7.240625,17.45625 7.240625,18.221875 7.240625,19.053125 C6.16875,19.053125 5.184375,19.053125 4.1125,19.053125 C4.1125,18.265625 4.1125,17.5 4.1125,16.646875 C2.778125,16.646875 1.509375,16.646875 0.153125,16.646875 C0.21875,15.421875 -0.065625,14.2625 0.83125,13.16875 C2.66875,10.959375 4.353125,8.61875 6.08125,6.321875 C6.103125,6.278125 6.125,6.2125 6.16875,6.103125 C4.309375,6.103125 2.49375,6.103125 0.634375,6.103125 C0.634375,4.94375 0.634375,3.871875 0.634375,2.7125 C1.79375,2.7125 2.909375,2.7125 4.090625,2.7125 Z"></path>
                    </g>
                    <path d="M4.090625,2.7125 C4.090625,1.815625 4.090625,1.028125 4.090625,0.196875 C5.140625,0.196875 6.146875,0.196875 7.240625,0.196875 C7.240625,1.00625 7.240625,1.815625 7.240625,2.690625 C8.53125,2.690625 9.734375,2.690625 11.06875,2.690625 C10.9375,3.89375 11.375,5.053125 10.45625,6.16875 C8.640625,8.378125 6.978125,10.71875 5.271875,12.99375 C5.25,13.015625 5.25,13.059375 5.228125,13.190625 C7.240625,13.190625 9.23125,13.190625 11.24375,13.190625 C11.24375,14.371875 11.24375,15.44375 11.24375,16.603125 C9.93125,16.603125 8.61875,16.603125 7.240625,16.603125 C7.240625,17.45625 7.240625,18.221875 7.240625,19.053125 C6.16875,19.053125 5.184375,19.053125 4.1125,19.053125 C4.1125,18.265625 4.1125,17.5 4.1125,16.646875 C2.778125,16.646875 1.509375,16.646875 0.153125,16.646875 C0.21875,15.421875 -0.065625,14.2625 0.83125,13.16875 C2.66875,10.959375 4.353125,8.61875 6.08125,6.321875 C6.103125,6.278125 6.125,6.2125 6.16875,6.103125 C4.309375,6.103125 2.49375,6.103125 0.634375,6.103125 C0.634375,4.94375 0.634375,3.871875 0.634375,2.7125 C1.79375,2.7125 2.909375,2.7125 4.090625,2.7125 Z" id="Path" fill="#FFFFFF"></path>
                </g>
            </g>
            <g id="Xaurum" mask="url(#mask-2)">
                <path d="M19.140625,28 L8.859375,28 C3.959375,28 0,24.040625 0,19.140625 L0,8.859375 C0,3.959375 3.959375,0 8.859375,0 L19.140625,0 C24.040625,0 28,3.959375 28,8.859375 L28,19.140625 C28,24.040625 24.040625,28 19.140625,28 Z" id="Path" fill="url(#linearGradient-4)"></path>
                <g id="Group" transform="translate(4.812500, 5.906250)" fill-rule="nonzero">
                    <g opacity="0.2" transform="translate(0.437500, 0.437500)" fill="#000000" id="Shape">
                        <path d="M0.0875,15.4875 C0.56875,15.4875 1.028125,15.4875 1.4875,15.4875 C1.4875,14.065625 1.4875,12.64375 1.4875,11.2 C1.946875,11.2 2.384375,11.2 2.821875,11.2 C2.821875,10.828125 2.821875,10.45625 2.821875,10.084375 C3.45625,10.084375 4.06875,10.084375 4.68125,10.084375 C4.746875,9.734375 4.659375,9.40625 4.725,9.05625 C5.315625,9.05625 5.90625,9.05625 6.51875,9.05625 C6.51875,8.903125 6.51875,8.75 6.51875,8.596875 C6.103125,8.44375 5.6875,8.26875 5.25,8.09375 C5.25,8.09375 5.25,8.071875 5.25,8.071875 C5.403125,8.00625 5.578125,7.940625 5.73125,7.875 C5.971875,7.7875 6.2125,7.678125 6.453125,7.590625 C6.475,7.56875 6.496875,7.525 6.51875,7.503125 C6.51875,7.371875 6.51875,7.21875 6.51875,7.065625 C5.90625,7.065625 5.315625,7.065625 4.703125,7.065625 C4.703125,6.715625 4.703125,6.3875 4.703125,6.0375 C4.06875,6.0375 3.45625,6.0375 2.821875,6.0375 C2.821875,5.665625 2.821875,5.29375 2.821875,4.921875 C2.3625,4.921875 1.925,4.921875 1.4875,4.921875 C1.4875,4.878125 1.4875,4.834375 1.4875,4.790625 C1.4875,3.45625 1.4875,2.121875 1.4875,0.7875 C1.4875,0.634375 1.4875,0.634375 1.334375,0.634375 C0.940625,0.634375 0.546875,0.634375 0.153125,0.634375 C0.13125,0.634375 0.109375,0.634375 0.065625,0.634375 C0.065625,0.48125 0.065625,0.30625 0.065625,0.153125 C1.96875,0.153125 3.85,0.153125 5.775,0.153125 C5.775,0.30625 5.775,0.48125 5.775,0.634375 C4.965625,0.634375 4.15625,0.634375 3.346875,0.634375 C3.346875,1.79375 3.346875,2.953125 3.346875,4.134375 C3.784375,4.134375 4.221875,4.134375 4.68125,4.134375 C4.68125,4.178125 4.68125,4.221875 4.68125,4.265625 C4.68125,4.50625 4.68125,4.76875 4.68125,5.009375 C4.68125,5.1625 4.68125,5.1625 4.834375,5.1625 C5.38125,5.1625 5.90625,5.1625 6.453125,5.1625 C6.496875,5.1625 6.51875,5.1625 6.584375,5.1625 C6.584375,5.3375 6.584375,5.490625 6.584375,5.665625 C7.2625,5.665625 7.91875,5.665625 8.575,5.665625 C8.4875,5.403125 8.203125,5.075 7.940625,5.096875 C7.9625,5.11875 7.9625,5.11875 7.984375,5.140625 C8.071875,5.25 8.071875,5.359375 7.984375,5.46875 C7.875,5.578125 7.634375,5.578125 7.525,5.46875 C7.30625,5.228125 7.459375,5.03125 7.7,4.94375 C8.00625,4.8125 8.246875,4.94375 8.4875,5.140625 C8.640625,5.271875 8.70625,5.446875 8.815625,5.6 C8.815625,5.621875 8.8375,5.621875 8.859375,5.64375 C9.1,5.03125 9.340625,4.440625 9.559375,3.828125 C9.559375,3.828125 9.58125,3.828125 9.58125,3.828125 C9.84375,4.41875 10.0625,5.053125 10.303125,5.665625 C10.390625,5.5125 10.478125,5.38125 10.565625,5.25 C10.71875,5.03125 10.9375,4.9 11.178125,4.878125 C11.375,4.85625 11.571875,4.94375 11.68125,5.140625 C11.68125,5.1625 11.703125,5.184375 11.703125,5.20625 C11.725,5.3375 11.615625,5.5125 11.484375,5.55625 C11.33125,5.6 11.178125,5.55625 11.1125,5.425 C11.06875,5.3375 11.090625,5.25 11.15625,5.1625 C11.178125,5.140625 11.178125,5.140625 11.2,5.11875 C10.9375,5.096875 10.653125,5.359375 10.565625,5.6875 C11.221875,5.6875 11.85625,5.6875 12.534375,5.6875 C12.534375,5.5125 12.534375,5.359375 12.534375,5.184375 C13.16875,5.184375 13.78125,5.184375 14.415625,5.184375 C14.415625,4.834375 14.415625,4.50625 14.415625,4.15625 C14.875,4.15625 15.3125,4.15625 15.771875,4.15625 C15.771875,4.1125 15.771875,4.090625 15.771875,4.046875 C15.771875,2.953125 15.771875,1.859375 15.771875,0.7875 C15.771875,0.65625 15.771875,0.65625 15.640625,0.65625 C14.940625,0.65625 14.21875,0.65625 13.51875,0.65625 C13.453125,0.65625 13.409375,0.65625 13.34375,0.65625 C13.34375,0.48125 13.34375,0.328125 13.34375,0.153125 C15.246875,0.153125 17.128125,0.153125 19.053125,0.153125 C19.053125,0.30625 19.053125,0.459375 19.053125,0.634375 C18.59375,0.634375 18.1125,0.634375 17.63125,0.634375 C17.63125,2.078125 17.63125,3.478125 17.63125,4.921875 C17.171875,4.921875 16.734375,4.921875 16.296875,4.921875 C16.296875,5.29375 16.296875,5.665625 16.296875,6.0375 C15.6625,6.0375 15.05,6.0375 14.415625,6.0375 C14.415625,6.3875 14.415625,6.715625 14.415625,7.065625 C13.803125,7.065625 13.190625,7.065625 12.55625,7.065625 C12.55625,7.21875 12.55625,7.371875 12.55625,7.503125 C12.55625,7.525 12.6,7.546875 12.621875,7.56875 C12.99375,7.721875 13.365625,7.875 13.7375,8.00625 C13.78125,8.028125 13.803125,8.028125 13.846875,8.071875 C13.409375,8.246875 12.971875,8.421875 12.534375,8.596875 C12.534375,8.70625 12.534375,8.815625 12.534375,8.903125 C12.534375,8.990625 12.55625,9.0125 12.64375,9.0125 C13.16875,9.0125 13.69375,9.0125 14.240625,9.0125 C14.284375,9.0125 14.328125,9.0125 14.39375,9.0125 C14.39375,9.3625 14.39375,9.690625 14.39375,10.040625 C15.028125,10.040625 15.640625,10.040625 16.275,10.040625 C16.275,10.4125 16.275,10.784375 16.275,11.15625 C16.734375,11.15625 17.171875,11.15625 17.609375,11.15625 C17.609375,12.578125 17.609375,14 17.609375,15.44375 C18.090625,15.44375 18.571875,15.44375 19.053125,15.44375 C19.053125,15.61875 19.053125,15.771875 19.053125,15.925 C19.053125,15.946875 19.03125,15.96875 18.9875,15.990625 C18.965625,15.990625 18.921875,15.990625 18.9,15.990625 C18.2875,15.990625 17.696875,15.990625 17.084375,15.990625 C15.903125,15.990625 14.7,15.990625 13.51875,15.96875 C13.34375,15.96875 13.321875,15.925 13.321875,15.75 C13.321875,15.6625 13.321875,15.553125 13.321875,15.44375 C14.13125,15.44375 14.940625,15.44375 15.728125,15.44375 C15.728125,14.284375 15.728125,13.125 15.728125,11.965625 C15.684375,11.965625 15.61875,11.965625 15.575,11.965625 C15.225,11.965625 14.875,11.965625 14.503125,11.965625 C14.371875,11.965625 14.371875,11.965625 14.371875,11.834375 C14.371875,11.55 14.371875,11.24375 14.371875,10.959375 C13.759375,10.959375 13.125,10.959375 12.490625,10.959375 C12.490625,10.828125 12.490625,10.71875 12.490625,10.609375 C12.490625,10.45625 12.490625,10.45625 12.3375,10.45625 C11.76875,10.45625 11.221875,10.45625 10.653125,10.45625 C10.609375,10.45625 10.565625,10.45625 10.5,10.45625 C10.54375,10.71875 10.85,11.06875 11.134375,11.06875 C11.134375,11.046875 11.1125,11.046875 11.1125,11.025 C11.003125,10.89375 11.003125,10.828125 11.06875,10.71875 C11.134375,10.609375 11.2875,10.565625 11.41875,10.5875 C11.528125,10.609375 11.59375,10.696875 11.6375,10.784375 C11.703125,10.915625 11.6375,11.06875 11.484375,11.15625 C11.24375,11.309375 10.9375,11.265625 10.71875,11.06875 C10.54375,10.915625 10.4125,10.740625 10.28125,10.521875 C10.040625,11.15625 9.778125,11.76875 9.5375,12.403125 C9.5375,12.403125 9.515625,12.403125 9.515625,12.403125 C9.275,11.790625 9.034375,11.15625 8.771875,10.521875 C8.75,10.565625 8.70625,10.609375 8.70625,10.63125 C8.596875,10.915625 8.4,11.090625 8.1375,11.2 C7.896875,11.2875 7.6125,11.265625 7.4375,10.98125 C7.415625,10.9375 7.415625,10.871875 7.415625,10.828125 C7.459375,10.653125 7.65625,10.54375 7.83125,10.5875 C8.00625,10.63125 8.071875,10.85 7.9625,10.98125 C7.940625,11.003125 7.91875,11.025 7.896875,11.046875 C8.071875,11.15625 8.465625,10.80625 8.553125,10.45625 C8.509375,10.45625 8.465625,10.45625 8.44375,10.45625 C7.853125,10.45625 7.2625,10.45625 6.69375,10.45625 C6.5625,10.45625 6.5625,10.45625 6.5625,10.5875 C6.5625,10.696875 6.5625,10.828125 6.5625,10.959375 C5.928125,10.959375 5.315625,10.959375 4.68125,10.959375 C4.68125,11.003125 4.68125,11.046875 4.68125,11.06875 C4.68125,11.33125 4.68125,11.59375 4.68125,11.85625 C4.68125,11.9875 4.68125,11.9875 4.55,11.9875 C4.2,11.9875 3.85,11.9875 3.478125,11.9875 C3.434375,11.9875 3.390625,11.9875 3.325,11.9875 C3.325,12.03125 3.325,12.096875 3.325,12.140625 C3.325,13.146875 3.325,14.153125 3.325,15.159375 C3.325,15.225 3.303125,15.290625 3.303125,15.35625 C3.303125,15.4 3.325,15.44375 3.325,15.4875 C3.36875,15.4875 3.434375,15.4875 3.478125,15.4875 C4.2,15.4875 4.9,15.4875 5.621875,15.4875 C5.753125,15.4875 5.753125,15.4875 5.753125,15.61875 C5.753125,15.75 5.753125,15.859375 5.753125,15.990625 C5.6875,15.990625 5.64375,15.990625 5.578125,15.990625 C3.80625,15.990625 2.034375,15.990625 0.2625,15.990625 C0.196875,15.990625 0.109375,16.0125 0.065625,15.990625 C0.04375,15.96875 0.04375,15.88125 0.04375,15.815625 C0.04375,15.75 0.04375,15.70625 0.04375,15.640625 C0.065625,15.596875 0.065625,15.553125 0.0875,15.4875 Z M10.346875,8.61875 C10.478125,8.4875 10.63125,8.334375 10.784375,8.203125 C10.915625,8.290625 11.046875,8.378125 11.134375,8.4875 C11.24375,8.596875 11.309375,8.728125 11.396875,8.859375 C11.50625,8.771875 11.615625,8.684375 11.725,8.575 C11.6375,8.4875 11.55,8.4 11.4625,8.334375 C11.375,8.26875 11.265625,8.225 11.178125,8.159375 C11.41875,8.115625 11.6375,8.1375 11.790625,8.290625 C11.965625,8.203125 12.11875,8.1375 12.271875,8.09375 C12.140625,8.028125 11.9875,7.940625 11.85625,7.875 C11.834375,7.853125 11.76875,7.875 11.746875,7.896875 C11.571875,8.05 11.375,8.05 11.134375,8.028125 C11.353125,7.91875 11.571875,7.83125 11.703125,7.6125 C11.59375,7.525 11.4625,7.415625 11.353125,7.328125 C11.178125,7.74375 10.915625,7.896875 10.696875,7.984375 C10.565625,7.853125 10.434375,7.74375 10.325,7.6125 C10.4125,7.415625 10.478125,7.240625 10.565625,7.065625 C10.565625,7.065625 10.54375,7.04375 10.54375,7.04375 C10.478125,7.065625 10.4125,7.109375 10.346875,7.13125 C10.2375,7.175 10.15,7.196875 10.040625,7.240625 C9.975,7.2625 9.953125,7.240625 9.909375,7.21875 C9.778125,7.065625 9.625,6.934375 9.49375,6.78125 C9.45,6.803125 9.428125,6.825 9.428125,6.825 C9.296875,6.95625 9.1875,7.065625 9.05625,7.196875 C9.0125,7.240625 8.96875,7.2625 8.903125,7.240625 C8.75,7.175 8.575,7.109375 8.378125,7.021875 C8.465625,7.240625 8.553125,7.4375 8.61875,7.590625 C8.4875,7.74375 8.35625,7.875 8.225,8.028125 C8.09375,7.940625 7.9625,7.853125 7.875,7.74375 C7.765625,7.634375 7.7,7.503125 7.6125,7.371875 C7.503125,7.459375 7.39375,7.56875 7.2625,7.65625 C7.35,7.74375 7.4375,7.83125 7.525,7.896875 C7.6125,7.9625 7.721875,8.00625 7.83125,8.071875 C7.546875,8.115625 7.48125,8.09375 7.175,7.91875 C7.13125,7.940625 7.065625,7.984375 7.021875,8.00625 C6.978125,8.028125 6.9125,8.05 6.846875,8.071875 C6.78125,8.09375 6.715625,8.071875 6.69375,8.1375 C6.86875,8.203125 7.021875,8.290625 7.175,8.35625 C7.2625,8.3125 7.35,8.225 7.459375,8.203125 C7.56875,8.18125 7.678125,8.18125 7.809375,8.18125 C7.809375,8.18125 7.809375,8.203125 7.809375,8.203125 C7.6125,8.3125 7.39375,8.4 7.2625,8.61875 C7.371875,8.70625 7.503125,8.815625 7.634375,8.903125 C7.74375,8.596875 7.9625,8.378125 8.246875,8.246875 C8.35625,8.35625 8.465625,8.44375 8.553125,8.553125 C8.575,8.575 8.575,8.61875 8.575,8.6625 C8.53125,8.79375 8.465625,8.903125 8.421875,9.034375 C8.4,9.078125 8.378125,9.14375 8.35625,9.1875 C8.35625,9.1875 8.378125,9.209375 8.378125,9.209375 C8.4875,9.165625 8.596875,9.121875 8.728125,9.05625 C8.96875,8.946875 8.96875,8.946875 9.165625,9.14375 C9.253125,9.253125 9.3625,9.340625 9.49375,9.471875 C9.66875,9.296875 9.821875,9.121875 9.975,8.946875 C10.171875,9.034375 10.36875,9.121875 10.54375,9.1875 C10.54375,9.1875 10.565625,9.165625 10.565625,9.165625 C10.521875,8.990625 10.434375,8.815625 10.346875,8.61875 Z"></path>
                    </g>
                    <path d="M0.0875,15.4875 C0.56875,15.4875 1.028125,15.4875 1.4875,15.4875 C1.4875,14.065625 1.4875,12.64375 1.4875,11.2 C1.946875,11.2 2.384375,11.2 2.821875,11.2 C2.821875,10.828125 2.821875,10.45625 2.821875,10.084375 C3.45625,10.084375 4.06875,10.084375 4.68125,10.084375 C4.746875,9.734375 4.659375,9.40625 4.725,9.05625 C5.315625,9.05625 5.90625,9.05625 6.51875,9.05625 C6.51875,8.903125 6.51875,8.75 6.51875,8.596875 C6.103125,8.44375 5.6875,8.26875 5.25,8.09375 C5.25,8.09375 5.25,8.071875 5.25,8.071875 C5.403125,8.00625 5.578125,7.940625 5.73125,7.875 C5.971875,7.7875 6.2125,7.678125 6.453125,7.590625 C6.475,7.56875 6.496875,7.525 6.51875,7.503125 C6.51875,7.371875 6.51875,7.21875 6.51875,7.065625 C5.90625,7.065625 5.315625,7.065625 4.703125,7.065625 C4.703125,6.715625 4.703125,6.3875 4.703125,6.0375 C4.06875,6.0375 3.45625,6.0375 2.821875,6.0375 C2.821875,5.665625 2.821875,5.29375 2.821875,4.921875 C2.3625,4.921875 1.925,4.921875 1.4875,4.921875 C1.4875,4.878125 1.4875,4.834375 1.4875,4.790625 C1.4875,3.45625 1.4875,2.121875 1.4875,0.7875 C1.4875,0.634375 1.4875,0.634375 1.334375,0.634375 C0.940625,0.634375 0.546875,0.634375 0.153125,0.634375 C0.13125,0.634375 0.109375,0.634375 0.065625,0.634375 C0.065625,0.48125 0.065625,0.30625 0.065625,0.153125 C1.96875,0.153125 3.85,0.153125 5.775,0.153125 C5.775,0.30625 5.775,0.48125 5.775,0.634375 C4.965625,0.634375 4.15625,0.634375 3.346875,0.634375 C3.346875,1.79375 3.346875,2.953125 3.346875,4.134375 C3.784375,4.134375 4.221875,4.134375 4.68125,4.134375 C4.68125,4.178125 4.68125,4.221875 4.68125,4.265625 C4.68125,4.50625 4.68125,4.76875 4.68125,5.009375 C4.68125,5.1625 4.68125,5.1625 4.834375,5.1625 C5.38125,5.1625 5.90625,5.1625 6.453125,5.1625 C6.496875,5.1625 6.51875,5.1625 6.584375,5.1625 C6.584375,5.3375 6.584375,5.490625 6.584375,5.665625 C7.2625,5.665625 7.91875,5.665625 8.575,5.665625 C8.4875,5.403125 8.203125,5.075 7.940625,5.096875 C7.9625,5.11875 7.9625,5.11875 7.984375,5.140625 C8.071875,5.25 8.071875,5.359375 7.984375,5.46875 C7.875,5.578125 7.634375,5.578125 7.525,5.46875 C7.30625,5.228125 7.459375,5.03125 7.7,4.94375 C8.00625,4.8125 8.246875,4.94375 8.4875,5.140625 C8.640625,5.271875 8.70625,5.446875 8.815625,5.6 C8.815625,5.621875 8.8375,5.621875 8.859375,5.64375 C9.1,5.03125 9.340625,4.440625 9.559375,3.828125 C9.559375,3.828125 9.58125,3.828125 9.58125,3.828125 C9.84375,4.41875 10.0625,5.053125 10.303125,5.665625 C10.390625,5.5125 10.478125,5.38125 10.565625,5.25 C10.71875,5.03125 10.9375,4.9 11.178125,4.878125 C11.375,4.85625 11.571875,4.94375 11.68125,5.140625 C11.68125,5.1625 11.703125,5.184375 11.703125,5.20625 C11.725,5.3375 11.615625,5.5125 11.484375,5.55625 C11.33125,5.6 11.178125,5.55625 11.1125,5.425 C11.06875,5.3375 11.090625,5.25 11.15625,5.1625 C11.178125,5.140625 11.178125,5.140625 11.2,5.11875 C10.9375,5.096875 10.653125,5.359375 10.565625,5.6875 C11.221875,5.6875 11.85625,5.6875 12.534375,5.6875 C12.534375,5.5125 12.534375,5.359375 12.534375,5.184375 C13.16875,5.184375 13.78125,5.184375 14.415625,5.184375 C14.415625,4.834375 14.415625,4.50625 14.415625,4.15625 C14.875,4.15625 15.3125,4.15625 15.771875,4.15625 C15.771875,4.1125 15.771875,4.090625 15.771875,4.046875 C15.771875,2.953125 15.771875,1.859375 15.771875,0.7875 C15.771875,0.65625 15.771875,0.65625 15.640625,0.65625 C14.940625,0.65625 14.21875,0.65625 13.51875,0.65625 C13.453125,0.65625 13.409375,0.65625 13.34375,0.65625 C13.34375,0.48125 13.34375,0.328125 13.34375,0.153125 C15.246875,0.153125 17.128125,0.153125 19.053125,0.153125 C19.053125,0.30625 19.053125,0.459375 19.053125,0.634375 C18.59375,0.634375 18.1125,0.634375 17.63125,0.634375 C17.63125,2.078125 17.63125,3.478125 17.63125,4.921875 C17.171875,4.921875 16.734375,4.921875 16.296875,4.921875 C16.296875,5.29375 16.296875,5.665625 16.296875,6.0375 C15.6625,6.0375 15.05,6.0375 14.415625,6.0375 C14.415625,6.3875 14.415625,6.715625 14.415625,7.065625 C13.803125,7.065625 13.190625,7.065625 12.55625,7.065625 C12.55625,7.21875 12.55625,7.371875 12.55625,7.503125 C12.55625,7.525 12.6,7.546875 12.621875,7.56875 C12.99375,7.721875 13.365625,7.875 13.7375,8.00625 C13.78125,8.028125 13.803125,8.028125 13.846875,8.071875 C13.409375,8.246875 12.971875,8.421875 12.534375,8.596875 C12.534375,8.70625 12.534375,8.815625 12.534375,8.903125 C12.534375,8.990625 12.55625,9.0125 12.64375,9.0125 C13.16875,9.0125 13.69375,9.0125 14.240625,9.0125 C14.284375,9.0125 14.328125,9.0125 14.39375,9.0125 C14.39375,9.3625 14.39375,9.690625 14.39375,10.040625 C15.028125,10.040625 15.640625,10.040625 16.275,10.040625 C16.275,10.4125 16.275,10.784375 16.275,11.15625 C16.734375,11.15625 17.171875,11.15625 17.609375,11.15625 C17.609375,12.578125 17.609375,14 17.609375,15.44375 C18.090625,15.44375 18.571875,15.44375 19.053125,15.44375 C19.053125,15.61875 19.053125,15.771875 19.053125,15.925 C19.053125,15.946875 19.03125,15.96875 18.9875,15.990625 C18.965625,15.990625 18.921875,15.990625 18.9,15.990625 C18.2875,15.990625 17.696875,15.990625 17.084375,15.990625 C15.903125,15.990625 14.7,15.990625 13.51875,15.96875 C13.34375,15.96875 13.321875,15.925 13.321875,15.75 C13.321875,15.6625 13.321875,15.553125 13.321875,15.44375 C14.13125,15.44375 14.940625,15.44375 15.728125,15.44375 C15.728125,14.284375 15.728125,13.125 15.728125,11.965625 C15.684375,11.965625 15.61875,11.965625 15.575,11.965625 C15.225,11.965625 14.875,11.965625 14.503125,11.965625 C14.371875,11.965625 14.371875,11.965625 14.371875,11.834375 C14.371875,11.55 14.371875,11.24375 14.371875,10.959375 C13.759375,10.959375 13.125,10.959375 12.490625,10.959375 C12.490625,10.828125 12.490625,10.71875 12.490625,10.609375 C12.490625,10.45625 12.490625,10.45625 12.3375,10.45625 C11.76875,10.45625 11.221875,10.45625 10.653125,10.45625 C10.609375,10.45625 10.565625,10.45625 10.5,10.45625 C10.54375,10.71875 10.85,11.06875 11.134375,11.06875 C11.134375,11.046875 11.1125,11.046875 11.1125,11.025 C11.003125,10.89375 11.003125,10.828125 11.06875,10.71875 C11.134375,10.609375 11.2875,10.565625 11.41875,10.5875 C11.528125,10.609375 11.59375,10.696875 11.6375,10.784375 C11.703125,10.915625 11.6375,11.06875 11.484375,11.15625 C11.24375,11.309375 10.9375,11.265625 10.71875,11.06875 C10.54375,10.915625 10.4125,10.740625 10.28125,10.521875 C10.040625,11.15625 9.778125,11.76875 9.5375,12.403125 C9.5375,12.403125 9.515625,12.403125 9.515625,12.403125 C9.275,11.790625 9.034375,11.15625 8.771875,10.521875 C8.75,10.565625 8.70625,10.609375 8.70625,10.63125 C8.596875,10.915625 8.4,11.090625 8.1375,11.2 C7.896875,11.2875 7.6125,11.265625 7.4375,10.98125 C7.415625,10.9375 7.415625,10.871875 7.415625,10.828125 C7.459375,10.653125 7.65625,10.54375 7.83125,10.5875 C8.00625,10.63125 8.071875,10.85 7.9625,10.98125 C7.940625,11.003125 7.91875,11.025 7.896875,11.046875 C8.071875,11.15625 8.465625,10.80625 8.553125,10.45625 C8.509375,10.45625 8.465625,10.45625 8.44375,10.45625 C7.853125,10.45625 7.2625,10.45625 6.69375,10.45625 C6.5625,10.45625 6.5625,10.45625 6.5625,10.5875 C6.5625,10.696875 6.5625,10.828125 6.5625,10.959375 C5.928125,10.959375 5.315625,10.959375 4.68125,10.959375 C4.68125,11.003125 4.68125,11.046875 4.68125,11.06875 C4.68125,11.33125 4.68125,11.59375 4.68125,11.85625 C4.68125,11.9875 4.68125,11.9875 4.55,11.9875 C4.2,11.9875 3.85,11.9875 3.478125,11.9875 C3.434375,11.9875 3.390625,11.9875 3.325,11.9875 C3.325,12.03125 3.325,12.096875 3.325,12.140625 C3.325,13.146875 3.325,14.153125 3.325,15.159375 C3.325,15.225 3.303125,15.290625 3.303125,15.35625 C3.303125,15.4 3.325,15.44375 3.325,15.4875 C3.36875,15.4875 3.434375,15.4875 3.478125,15.4875 C4.2,15.4875 4.9,15.4875 5.621875,15.4875 C5.753125,15.4875 5.753125,15.4875 5.753125,15.61875 C5.753125,15.75 5.753125,15.859375 5.753125,15.990625 C5.6875,15.990625 5.64375,15.990625 5.578125,15.990625 C3.80625,15.990625 2.034375,15.990625 0.2625,15.990625 C0.196875,15.990625 0.109375,16.0125 0.065625,15.990625 C0.04375,15.96875 0.04375,15.88125 0.04375,15.815625 C0.04375,15.75 0.04375,15.70625 0.04375,15.640625 C0.065625,15.596875 0.065625,15.553125 0.0875,15.4875 Z M10.346875,8.61875 C10.478125,8.4875 10.63125,8.334375 10.784375,8.203125 C10.915625,8.290625 11.046875,8.378125 11.134375,8.4875 C11.24375,8.596875 11.309375,8.728125 11.396875,8.859375 C11.50625,8.771875 11.615625,8.684375 11.725,8.575 C11.6375,8.4875 11.55,8.4 11.4625,8.334375 C11.375,8.26875 11.265625,8.225 11.178125,8.159375 C11.41875,8.115625 11.6375,8.1375 11.790625,8.290625 C11.965625,8.203125 12.11875,8.1375 12.271875,8.09375 C12.140625,8.028125 11.9875,7.940625 11.85625,7.875 C11.834375,7.853125 11.76875,7.875 11.746875,7.896875 C11.571875,8.05 11.375,8.05 11.134375,8.028125 C11.353125,7.91875 11.571875,7.83125 11.703125,7.6125 C11.59375,7.525 11.4625,7.415625 11.353125,7.328125 C11.178125,7.74375 10.915625,7.896875 10.696875,7.984375 C10.565625,7.853125 10.434375,7.74375 10.325,7.6125 C10.4125,7.415625 10.478125,7.240625 10.565625,7.065625 C10.565625,7.065625 10.54375,7.04375 10.54375,7.04375 C10.478125,7.065625 10.4125,7.109375 10.346875,7.13125 C10.2375,7.175 10.15,7.196875 10.040625,7.240625 C9.975,7.2625 9.953125,7.240625 9.909375,7.21875 C9.778125,7.065625 9.625,6.934375 9.49375,6.78125 C9.45,6.803125 9.428125,6.825 9.428125,6.825 C9.296875,6.95625 9.1875,7.065625 9.05625,7.196875 C9.0125,7.240625 8.96875,7.2625 8.903125,7.240625 C8.75,7.175 8.575,7.109375 8.378125,7.021875 C8.465625,7.240625 8.553125,7.4375 8.61875,7.590625 C8.4875,7.74375 8.35625,7.875 8.225,8.028125 C8.09375,7.940625 7.9625,7.853125 7.875,7.74375 C7.765625,7.634375 7.7,7.503125 7.6125,7.371875 C7.503125,7.459375 7.39375,7.56875 7.2625,7.65625 C7.35,7.74375 7.4375,7.83125 7.525,7.896875 C7.6125,7.9625 7.721875,8.00625 7.83125,8.071875 C7.546875,8.115625 7.48125,8.09375 7.175,7.91875 C7.13125,7.940625 7.065625,7.984375 7.021875,8.00625 C6.978125,8.028125 6.9125,8.05 6.846875,8.071875 C6.78125,8.09375 6.715625,8.071875 6.69375,8.1375 C6.86875,8.203125 7.021875,8.290625 7.175,8.35625 C7.2625,8.3125 7.35,8.225 7.459375,8.203125 C7.56875,8.18125 7.678125,8.18125 7.809375,8.18125 C7.809375,8.18125 7.809375,8.203125 7.809375,8.203125 C7.6125,8.3125 7.39375,8.4 7.2625,8.61875 C7.371875,8.70625 7.503125,8.815625 7.634375,8.903125 C7.74375,8.596875 7.9625,8.378125 8.246875,8.246875 C8.35625,8.35625 8.465625,8.44375 8.553125,8.553125 C8.575,8.575 8.575,8.61875 8.575,8.6625 C8.53125,8.79375 8.465625,8.903125 8.421875,9.034375 C8.4,9.078125 8.378125,9.14375 8.35625,9.1875 C8.35625,9.1875 8.378125,9.209375 8.378125,9.209375 C8.4875,9.165625 8.596875,9.121875 8.728125,9.05625 C8.96875,8.946875 8.96875,8.946875 9.165625,9.14375 C9.253125,9.253125 9.3625,9.340625 9.49375,9.471875 C9.66875,9.296875 9.821875,9.121875 9.975,8.946875 C10.171875,9.034375 10.36875,9.121875 10.54375,9.1875 C10.54375,9.1875 10.565625,9.165625 10.565625,9.165625 C10.521875,8.990625 10.434375,8.815625 10.346875,8.61875 Z" id="Shape" fill="#FFFFFF"></path>
                </g>
            </g>
            <g id="Waves" mask="url(#mask-2)">
                <path d="M19.140625,28 L8.859375,28 C3.959375,28 0,24.040625 0,19.140625 L0,8.859375 C0,3.959375 3.959375,0 8.859375,0 L19.140625,0 C24.040625,0 28,3.959375 28,8.859375 L28,19.140625 C28,24.040625 24.040625,28 19.140625,28 Z" id="Path" fill="url(#linearGradient-5)"></path>
                <g id="Group" transform="translate(3.718750, 3.718750)">
                    <g opacity="0.2" transform="translate(0.437500, 0.437500)" fill="#000000" id="Path">
                        <path d="M5.20625,8.4 L6.2125,9.340625 C6.51875,9.625 6.978125,9.625 7.284375,9.340625 L9.31875,7.459375 C9.8875,6.934375 10.740625,6.934375 11.309375,7.459375 L13.34375,9.340625 C13.65,9.625 14.109375,9.625 14.415625,9.340625 L15.421875,8.4 L16.953125,6.86875 C17.2375,6.584375 17.2375,6.103125 16.953125,5.796875 L11.9,0.74375 C11.025,-0.13125 9.603125,-0.13125 8.728125,0.74375 L3.675,5.796875 C3.36875,6.103125 3.36875,6.5625 3.675,6.86875 L5.20625,8.4 Z"></path>
                        <path d="M19.228125,9.14375 L17.98125,7.9625 C17.675,7.678125 17.215625,7.678125 16.909375,7.9625 L14.875,9.84375 C14.30625,10.36875 13.453125,10.36875 12.884375,9.84375 L10.85,7.9625 C10.54375,7.678125 10.084375,7.678125 9.778125,7.9625 L7.74375,9.84375 C7.175,10.36875 6.321875,10.36875 5.753125,9.84375 L3.71875,7.9625 C3.4125,7.678125 2.953125,7.678125 2.646875,7.9625 L1.509375,9.034375 C0.459375,10.01875 -0.65625,10.45625 0.7875,11.9 L8.728125,19.840625 C9.603125,20.715625 11.025,20.715625 11.9,19.840625 L19.840625,11.9 C21.196875,10.5 20.234375,10.084375 19.228125,9.14375 Z"></path>
                    </g>
                    <g fill="#FFFFFF" id="Path">
                        <path d="M5.20625,8.4 L6.2125,9.340625 C6.51875,9.625 6.978125,9.625 7.284375,9.340625 L9.31875,7.459375 C9.8875,6.934375 10.740625,6.934375 11.309375,7.459375 L13.34375,9.340625 C13.65,9.625 14.109375,9.625 14.415625,9.340625 L15.421875,8.4 L16.953125,6.86875 C17.2375,6.584375 17.2375,6.103125 16.953125,5.796875 L11.9,0.74375 C11.025,-0.13125 9.603125,-0.13125 8.728125,0.74375 L3.675,5.796875 C3.36875,6.103125 3.36875,6.5625 3.675,6.86875 L5.20625,8.4 Z"></path>
                        <path d="M19.228125,9.14375 L17.98125,7.9625 C17.675,7.678125 17.215625,7.678125 16.909375,7.9625 L14.875,9.84375 C14.30625,10.36875 13.453125,10.36875 12.884375,9.84375 L10.85,7.9625 C10.54375,7.678125 10.084375,7.678125 9.778125,7.9625 L7.74375,9.84375 C7.175,10.36875 6.321875,10.36875 5.753125,9.84375 L3.71875,7.9625 C3.4125,7.678125 2.953125,7.678125 2.646875,7.9625 L1.509375,9.034375 C0.459375,10.01875 -0.65625,10.45625 0.7875,11.9 L8.728125,19.840625 C9.603125,20.715625 11.025,20.715625 11.9,19.840625 L19.840625,11.9 C21.196875,10.5 20.234375,10.084375 19.228125,9.14375 Z"></path>
                    </g>
                </g>
            </g>
            <g id="TajCoin" mask="url(#mask-2)">
                <path d="M19.140625,28 L8.859375,28 C3.959375,28 0,24.040625 0,19.140625 L0,8.859375 C0,3.959375 3.959375,0 8.859375,0 L19.140625,0 C24.040625,0 28,3.959375 28,8.859375 L28,19.140625 C28,24.040625 24.040625,28 19.140625,28 Z" id="Path" fill="url(#linearGradient-6)"></path>
                <g id="Group" transform="translate(3.062500, 3.281250)">
                    <g opacity="0.2" transform="translate(0.437500, 0.437500)" fill="#000000" id="Path">
                        <path d="M2.690625,3.653125 C3.36875,3.303125 4.090625,3.084375 4.9,3.01875 C5.73125,2.953125 6.584375,2.975 7.39375,3.01875 C7.678125,3.01875 7.984375,3.040625 8.26875,3.040625 C8.596875,3.040625 8.946875,3.0625 9.275,3.084375 C9.821875,3.10625 10.390625,3.128125 10.9375,3.10625 C11.6375,3.084375 12.053125,2.7125 12.228125,1.96875 C12.3375,1.509375 12.228125,1.1375 11.9,0.809375 C11.59375,0.503125 11.178125,0.30625 10.63125,0.21875 C10.303125,0.153125 9.953125,0.13125 9.625,0.13125 C8.771875,0.13125 7.875,0.30625 6.803125,0.65625 C5.8625,0.9625 4.965625,1.509375 4.046875,2.275 C3.565625,2.7125 3.10625,3.171875 2.690625,3.653125 Z"></path>
                        <path d="M4.68125,7.634375 C3.80625,7.634375 3.040625,7.809375 2.384375,8.1375 C1.79375,8.44375 1.44375,8.771875 1.290625,9.23125 C0.74375,10.675 0.590625,12.140625 0.809375,13.584375 C1.203125,16.209375 2.5375,18.221875 4.746875,19.55625 C7.35,21.153125 10.10625,21.284375 12.95,19.99375 C13.16875,19.90625 13.365625,19.775 13.584375,19.64375 C12.490625,19.184375 11.790625,18.725 10.98125,17.959375 C10.959375,17.959375 10.9375,17.959375 10.915625,17.959375 C9.865625,18.24375 8.925,18.2875 8.05,18.06875 C5.6875,17.521875 4.134375,16.034375 3.54375,13.78125 C2.953125,11.50625 3.63125,9.45 5.490625,7.83125 C5.55625,7.7875 5.6,7.721875 5.665625,7.678125 C5.46875,7.65625 5.25,7.65625 5.053125,7.634375 C4.921875,7.634375 4.790625,7.634375 4.68125,7.634375 Z"></path>
                        <path d="M19.709375,13.190625 C19.140625,13.934375 18.6375,14.6125 18.15625,15.3125 C17.915625,15.6625 17.828125,16.0125 17.89375,16.340625 C17.98125,16.734375 18.2,17.01875 18.484375,17.15 C18.76875,17.259375 19.096875,17.215625 19.403125,17.01875 C19.753125,16.8 20.0375,16.515625 20.234375,16.253125 C21.2625,14.853125 21.809375,13.278125 21.83125,11.55 C21.83125,10.871875 21.809375,10.128125 21.7,9.31875 C21.65625,9.49375 21.6125,9.66875 21.56875,9.84375 C21.175,11.134375 20.453125,12.228125 19.709375,13.190625 Z"></path>
                        <path d="M10.215625,8.09375 C10.565625,8.26875 10.9375,8.44375 11.309375,8.596875 C11.615625,8.728125 11.921875,8.79375 12.25,8.8375 C12.20625,8.728125 12.1625,8.596875 12.1625,8.465625 C12.11875,8.09375 12.228125,7.721875 12.446875,7.4375 C12.6875,7.13125 13.103125,6.934375 13.51875,6.934375 C13.890625,6.934375 14.240625,7.065625 14.503125,7.328125 C14.765625,7.590625 14.91875,7.875 14.940625,8.18125 C15.70625,7.6125 16.23125,6.7375 16.384375,5.775 C16.5375,4.725 16.1875,3.696875 15.421875,2.996875 C14.875,2.471875 14.196875,2.078125 13.3,1.728125 C13.278125,2.821875 12.5125,4.003125 11.090625,4.15625 C10.19375,4.24375 9.296875,4.178125 8.44375,4.1125 C8.3125,4.090625 8.159375,4.090625 8.028125,4.06875 C7.459375,4.025 6.9125,3.98125 6.365625,3.98125 C5.796875,3.98125 5.25,4.025 4.68125,4.134375 C3.040625,4.4625 1.88125,5.20625 1.071875,6.3875 C0.546875,7.153125 0.2625,8.09375 0.153125,9.209375 C0.459375,8.4875 0.9625,7.91875 1.640625,7.48125 C2.5375,6.9125 3.609375,6.65 4.94375,6.671875 C6.3875,6.69375 7.83125,7.021875 9.31875,7.65625 C9.625,7.809375 9.909375,7.9625 10.215625,8.09375 Z"></path>
                        <path d="M7.91875,12.90625 C7.4375,12.709375 7.21875,12.359375 7.21875,11.8125 C7.21875,11.178125 7.65625,10.696875 8.290625,10.675 L8.334375,10.675 C8.44375,10.675 8.575,10.696875 8.6625,10.71875 C8.925,10.084375 9.3625,9.515625 9.975,9.0125 C9.078125,8.553125 8.26875,8.246875 7.48125,8.05 C7.459375,8.05 7.415625,8.05 7.39375,8.05 C7.328125,8.05 7.2625,8.071875 7.21875,8.09375 C5.184375,9.034375 4.06875,11.4625 4.703125,13.628125 C5.03125,14.875 5.884375,15.903125 7.04375,16.515625 C7.83125,16.93125 8.70625,17.10625 9.58125,17.040625 L7.91875,12.90625 Z"></path>
                        <path d="M20.51875,5.446875 C20.278125,4.834375 19.928125,4.24375 19.446875,3.675 C19.99375,5.009375 19.95,6.496875 19.271875,7.984375 C18.921875,8.75 18.440625,9.45 17.828125,10.15 C17.871875,10.325 17.85,10.478125 17.828125,10.609375 C17.7625,10.871875 17.63125,11.06875 17.45625,11.221875 L17.4125,11.921875 L17.80625,11.615625 C17.98125,10.80625 18.55,10.675 18.9,10.675 C19.3375,10.675 19.709375,10.915625 19.90625,11.2875 C20.015625,11.1125 20.125,10.9375 20.2125,10.7625 C21.13125,9.0125 21.21875,7.21875 20.51875,5.446875 Z"></path>
                        <path d="M17.10625,16.8875 C17.0625,16.8875 16.996875,16.8875 16.953125,16.8875 C16.865625,16.8875 16.778125,16.8875 16.690625,16.865625 C16.40625,16.821875 16.1,16.8 15.79375,16.778125 C15.596875,16.75625 15.378125,16.75625 15.18125,16.734375 C14.896875,16.7125 14.590625,16.690625 14.196875,16.690625 C14.021875,16.690625 13.846875,16.690625 13.671875,16.690625 C13.51875,16.690625 13.3875,16.690625 13.234375,16.690625 C13.125,16.690625 13.015625,16.690625 12.884375,16.7125 C13.16875,17.434375 13.803125,17.9375 14.153125,18.178125 C15.1375,18.85625 16.45,18.68125 17.71875,17.740625 C17.434375,17.478125 17.215625,17.171875 17.10625,16.8875 C17.10625,16.8875 17.10625,16.8875 17.10625,16.8875 Z"></path>
                        <path d="M8.290625,11.4625 C8.09375,11.4625 7.984375,11.59375 7.984375,11.8125 C7.984375,12.03125 8.028125,12.11875 8.246875,12.184375 C8.3125,12.20625 8.4,12.20625 8.4875,12.228125 C9.0125,13.5625 9.559375,14.875 10.10625,16.23125 C10.325,16.1875 10.521875,16.165625 10.71875,16.14375 C11.134375,16.078125 11.55,16.0125 11.965625,15.990625 C12.38125,15.96875 12.796875,15.88125 13.2125,15.88125 C13.540625,15.88125 13.846875,15.88125 14.175,15.88125 C14.525,15.88125 14.896875,15.88125 15.246875,15.925 C15.771875,15.96875 16.275,15.990625 16.8,16.078125 C16.84375,16.078125 16.8875,16.078125 16.953125,16.078125 C17.040625,16.078125 17.128125,16.078125 17.19375,16.078125 C17.71875,14.7875 18.221875,13.496875 18.725,12.228125 C19.11875,12.140625 19.25,12.03125 19.228125,11.790625 C19.20625,11.59375 19.075,11.4625 18.878125,11.4625 C18.878125,11.4625 18.878125,11.4625 18.878125,11.4625 C18.6375,11.4625 18.55,11.59375 18.528125,12.03125 C17.871875,12.55625 17.215625,13.08125 16.515625,13.628125 C16.58125,12.665625 16.625,11.746875 16.690625,10.828125 C17.0625,10.5875 17.128125,10.434375 16.996875,10.2375 C16.93125,10.128125 16.778125,10.0625 16.66875,10.0625 C16.603125,10.0625 16.559375,10.084375 16.515625,10.10625 C16.31875,10.215625 16.31875,10.478125 16.471875,10.7625 C15.96875,11.615625 15.53125,12.5125 14.984375,13.3875 C14.56875,11.9 14.153125,10.434375 13.759375,8.990625 C14.21875,8.53125 14.2625,8.225 13.95625,7.896875 C13.846875,7.7875 13.671875,7.721875 13.51875,7.721875 C13.34375,7.721875 13.146875,7.7875 13.059375,7.91875 C12.81875,8.225 12.90625,8.640625 13.3,8.946875 C12.928125,10.346875 12.534375,11.76875 12.11875,13.2125 C11.6375,12.359375 11.178125,11.55 10.740625,10.740625 C10.915625,10.45625 10.915625,10.2375 10.740625,10.10625 C10.696875,10.0625 10.609375,10.0625 10.54375,10.0625 C10.4125,10.0625 10.28125,10.10625 10.2375,10.215625 C10.19375,10.325 10.19375,10.45625 10.19375,10.565625 C10.19375,10.7625 10.4125,10.71875 10.521875,10.828125 C10.54375,11.353125 10.565625,11.85625 10.609375,12.38125 C10.609375,12.5125 10.653125,12.64375 10.653125,12.775 C10.675,13.0375 10.696875,13.3 10.653125,13.60625 C9.975,13.08125 9.31875,12.55625 8.684375,12.053125 C8.684375,11.965625 8.684375,11.9 8.684375,11.834375 C8.6625,11.59375 8.53125,11.4625 8.290625,11.4625 C8.3125,11.4625 8.3125,11.4625 8.290625,11.4625 Z"></path>
                    </g>
                    <g fill="#FFFFFF" id="Path">
                        <g>
                            <path d="M2.690625,3.653125 C3.36875,3.303125 4.090625,3.084375 4.9,3.01875 C5.73125,2.953125 6.584375,2.975 7.39375,3.01875 C7.678125,3.01875 7.984375,3.040625 8.26875,3.040625 C8.596875,3.040625 8.946875,3.0625 9.275,3.084375 C9.821875,3.10625 10.390625,3.128125 10.9375,3.10625 C11.6375,3.084375 12.053125,2.7125 12.228125,1.96875 C12.3375,1.509375 12.228125,1.1375 11.9,0.809375 C11.59375,0.503125 11.178125,0.30625 10.63125,0.21875 C10.303125,0.153125 9.953125,0.13125 9.625,0.13125 C8.771875,0.13125 7.875,0.30625 6.803125,0.65625 C5.8625,0.9625 4.965625,1.509375 4.046875,2.275 C3.565625,2.7125 3.10625,3.171875 2.690625,3.653125 Z"></path>
                            <path d="M4.68125,7.634375 C3.80625,7.634375 3.040625,7.809375 2.384375,8.1375 C1.79375,8.44375 1.44375,8.771875 1.290625,9.23125 C0.74375,10.675 0.590625,12.140625 0.809375,13.584375 C1.203125,16.209375 2.5375,18.221875 4.746875,19.55625 C7.35,21.153125 10.10625,21.284375 12.95,19.99375 C13.16875,19.90625 13.365625,19.775 13.584375,19.64375 C12.490625,19.184375 11.790625,18.725 10.98125,17.959375 C10.959375,17.959375 10.9375,17.959375 10.915625,17.959375 C9.865625,18.24375 8.925,18.2875 8.05,18.06875 C5.6875,17.521875 4.134375,16.034375 3.54375,13.78125 C2.953125,11.50625 3.63125,9.45 5.490625,7.83125 C5.55625,7.7875 5.6,7.721875 5.665625,7.678125 C5.46875,7.65625 5.25,7.65625 5.053125,7.634375 C4.921875,7.634375 4.790625,7.634375 4.68125,7.634375 Z"></path>
                            <path d="M19.709375,13.190625 C19.140625,13.934375 18.6375,14.6125 18.15625,15.3125 C17.915625,15.6625 17.828125,16.0125 17.89375,16.340625 C17.98125,16.734375 18.2,17.01875 18.484375,17.15 C18.76875,17.259375 19.096875,17.215625 19.403125,17.01875 C19.753125,16.8 20.0375,16.515625 20.234375,16.253125 C21.2625,14.853125 21.809375,13.278125 21.83125,11.55 C21.83125,10.871875 21.809375,10.128125 21.7,9.31875 C21.65625,9.49375 21.6125,9.66875 21.56875,9.84375 C21.175,11.134375 20.453125,12.228125 19.709375,13.190625 Z"></path>
                            <path d="M10.215625,8.09375 C10.565625,8.26875 10.9375,8.44375 11.309375,8.596875 C11.615625,8.728125 11.921875,8.79375 12.25,8.8375 C12.20625,8.728125 12.1625,8.596875 12.1625,8.465625 C12.11875,8.09375 12.228125,7.721875 12.446875,7.4375 C12.6875,7.13125 13.103125,6.934375 13.51875,6.934375 C13.890625,6.934375 14.240625,7.065625 14.503125,7.328125 C14.765625,7.590625 14.91875,7.875 14.940625,8.18125 C15.70625,7.6125 16.23125,6.7375 16.384375,5.775 C16.5375,4.725 16.1875,3.696875 15.421875,2.996875 C14.875,2.471875 14.196875,2.078125 13.3,1.728125 C13.278125,2.821875 12.5125,4.003125 11.090625,4.15625 C10.19375,4.24375 9.296875,4.178125 8.44375,4.1125 C8.3125,4.090625 8.159375,4.090625 8.028125,4.06875 C7.459375,4.025 6.9125,3.98125 6.365625,3.98125 C5.796875,3.98125 5.25,4.025 4.68125,4.134375 C3.040625,4.4625 1.88125,5.20625 1.071875,6.3875 C0.546875,7.153125 0.2625,8.09375 0.153125,9.209375 C0.459375,8.4875 0.9625,7.91875 1.640625,7.48125 C2.5375,6.9125 3.609375,6.65 4.94375,6.671875 C6.3875,6.69375 7.83125,7.021875 9.31875,7.65625 C9.625,7.809375 9.909375,7.9625 10.215625,8.09375 Z"></path>
                            <path d="M7.91875,12.90625 C7.4375,12.709375 7.21875,12.359375 7.21875,11.8125 C7.21875,11.178125 7.65625,10.696875 8.290625,10.675 L8.334375,10.675 C8.44375,10.675 8.575,10.696875 8.6625,10.71875 C8.925,10.084375 9.3625,9.515625 9.975,9.0125 C9.078125,8.553125 8.26875,8.246875 7.48125,8.05 C7.459375,8.05 7.415625,8.05 7.39375,8.05 C7.328125,8.05 7.2625,8.071875 7.21875,8.09375 C5.184375,9.034375 4.06875,11.4625 4.703125,13.628125 C5.03125,14.875 5.884375,15.903125 7.04375,16.515625 C7.83125,16.93125 8.70625,17.10625 9.58125,17.040625 L7.91875,12.90625 Z"></path>
                            <g transform="translate(12.687500, 3.500000)">
                                <path d="M7.83125,1.946875 C7.590625,1.334375 7.240625,0.74375 6.759375,0.175 C7.30625,1.509375 7.2625,2.996875 6.584375,4.484375 C6.234375,5.25 5.753125,5.95 5.140625,6.65 C5.184375,6.825 5.1625,6.978125 5.140625,7.109375 C5.075,7.371875 4.94375,7.56875 4.76875,7.721875 L4.725,8.421875 L5.11875,8.115625 C5.29375,7.30625 5.8625,7.175 6.2125,7.175 C6.65,7.175 7.021875,7.415625 7.21875,7.7875 C7.328125,7.6125 7.4375,7.4375 7.525,7.2625 C8.44375,5.5125 8.53125,3.71875 7.83125,1.946875 Z"></path>
                                <path d="M4.41875,13.3875 C4.375,13.3875 4.309375,13.3875 4.265625,13.3875 C4.178125,13.3875 4.090625,13.3875 4.003125,13.365625 C3.71875,13.321875 3.4125,13.3 3.10625,13.278125 C2.909375,13.25625 2.690625,13.25625 2.49375,13.234375 C2.209375,13.2125 1.903125,13.190625 1.509375,13.190625 C1.334375,13.190625 1.159375,13.190625 0.984375,13.190625 C0.83125,13.190625 0.7,13.190625 0.546875,13.190625 C0.4375,13.190625 0.328125,13.190625 0.196875,13.2125 C0.48125,13.934375 1.115625,14.4375 1.465625,14.678125 C2.45,15.35625 3.7625,15.18125 5.03125,14.240625 C4.746875,13.978125 4.528125,13.671875 4.41875,13.3875 C4.41875,13.3875 4.41875,13.3875 4.41875,13.3875 Z"></path>
                            </g>
                        </g>
                        <path d="M8.290625,11.4625 C8.09375,11.4625 7.984375,11.59375 7.984375,11.8125 C7.984375,12.03125 8.028125,12.11875 8.246875,12.184375 C8.3125,12.20625 8.4,12.20625 8.4875,12.228125 C9.0125,13.5625 9.559375,14.875 10.10625,16.23125 C10.325,16.1875 10.521875,16.165625 10.71875,16.14375 C11.134375,16.078125 11.55,16.0125 11.965625,15.990625 C12.38125,15.96875 12.796875,15.88125 13.2125,15.88125 C13.540625,15.88125 13.846875,15.88125 14.175,15.88125 C14.525,15.88125 14.896875,15.88125 15.246875,15.925 C15.771875,15.96875 16.275,15.990625 16.8,16.078125 C16.84375,16.078125 16.8875,16.078125 16.953125,16.078125 C17.040625,16.078125 17.128125,16.078125 17.19375,16.078125 C17.71875,14.7875 18.221875,13.496875 18.725,12.228125 C19.11875,12.140625 19.25,12.03125 19.228125,11.790625 C19.20625,11.59375 19.075,11.4625 18.878125,11.4625 C18.878125,11.4625 18.878125,11.4625 18.878125,11.4625 C18.6375,11.4625 18.55,11.59375 18.528125,12.03125 C17.871875,12.55625 17.215625,13.08125 16.515625,13.628125 C16.58125,12.665625 16.625,11.746875 16.690625,10.828125 C17.0625,10.5875 17.128125,10.434375 16.996875,10.2375 C16.93125,10.128125 16.778125,10.0625 16.66875,10.0625 C16.603125,10.0625 16.559375,10.084375 16.515625,10.10625 C16.31875,10.215625 16.31875,10.478125 16.471875,10.7625 C15.96875,11.615625 15.53125,12.5125 14.984375,13.3875 C14.56875,11.9 14.153125,10.434375 13.759375,8.990625 C14.21875,8.53125 14.2625,8.225 13.95625,7.896875 C13.846875,7.7875 13.671875,7.721875 13.51875,7.721875 C13.34375,7.721875 13.146875,7.7875 13.059375,7.91875 C12.81875,8.225 12.90625,8.640625 13.3,8.946875 C12.928125,10.346875 12.534375,11.76875 12.11875,13.2125 C11.6375,12.359375 11.178125,11.55 10.740625,10.740625 C10.915625,10.45625 10.915625,10.2375 10.740625,10.10625 C10.696875,10.0625 10.609375,10.0625 10.54375,10.0625 C10.4125,10.0625 10.28125,10.10625 10.2375,10.215625 C10.19375,10.325 10.19375,10.45625 10.19375,10.565625 C10.19375,10.7625 10.4125,10.71875 10.521875,10.828125 C10.54375,11.353125 10.565625,11.85625 10.609375,12.38125 C10.609375,12.5125 10.653125,12.64375 10.653125,12.775 C10.675,13.0375 10.696875,13.3 10.653125,13.60625 C9.975,13.08125 9.31875,12.55625 8.684375,12.053125 C8.684375,11.965625 8.684375,11.9 8.684375,11.834375 C8.6625,11.59375 8.53125,11.4625 8.290625,11.4625 C8.3125,11.4625 8.3125,11.4625 8.290625,11.4625 Z"></path>
                    </g>
                </g>
            </g>
            <g id="Suncontract" mask="url(#mask-2)">
                <path d="M19.140625,28 L8.859375,28 C3.959375,28 0,24.040625 0,19.140625 L0,8.859375 C0,3.959375 3.959375,0 8.859375,0 L19.140625,0 C24.040625,0 28,3.959375 28,8.859375 L28,19.140625 C28,24.040625 24.040625,28 19.140625,28 Z" id="Path" fill="url(#linearGradient-7)"></path>
                <g id="Group" transform="translate(3.937500, 6.562500)">
                    <g opacity="0.2" transform="translate(0.437500, 0.437500)" fill="#000000" id="Path">
                        <path d="M0.021875,14.39375 C0.196875,13.69375 0.35,13.059375 0.525,12.38125 C1.3125,12.446875 1.684375,12.009375 1.903125,11.353125 C2.253125,10.2375 2.58125,9.1 2.93125,7.875 C2.034375,8.3125 1.203125,8.00625 0.30625,8.159375 C0.4375,7.590625 0.546875,7.0875 0.7,6.584375 C0.721875,6.51875 0.91875,6.453125 1.028125,6.453125 C1.75,6.43125 2.471875,6.453125 3.19375,6.453125 C3.45625,5.490625 3.696875,4.528125 3.959375,3.5875 C4.2,2.75625 4.55,1.990625 5.03125,1.26875 C6.103125,-0.328125 8.203125,-0.0875 9.1,1.3125 C9.7125,2.253125 10.040625,3.303125 10.325,4.375 C10.89375,6.60625 11.440625,8.8375 12.009375,11.06875 C12.096875,11.375 12.20625,11.68125 12.359375,11.94375 C12.578125,12.359375 12.928125,12.38125 13.103125,11.94375 C13.3875,11.2 13.628125,10.434375 13.846875,9.646875 C14.39375,7.525 14.91875,5.38125 15.465625,3.2375 C15.684375,2.384375 16.121875,1.61875 16.7125,0.940625 C17.128125,0.48125 17.63125,0.196875 18.265625,0.175 C18.746875,0.153125 19.20625,0.175 19.73125,0.175 C19.55625,0.875 19.403125,1.509375 19.228125,2.1875 C18.396875,2.078125 18.025,2.58125 17.828125,3.2375 C17.478125,4.353125 17.171875,5.46875 16.84375,6.65 C17.740625,6.234375 18.571875,6.51875 19.46875,6.409375 C19.315625,7.021875 19.184375,7.546875 19.053125,8.09375 C18.221875,8.09375 17.4125,8.09375 16.58125,8.09375 C16.428125,8.70625 16.275,9.296875 16.121875,9.8875 C15.79375,11.1125 15.465625,12.3375 14.678125,13.365625 C13.671875,14.678125 11.878125,14.7 10.85,13.409375 C10.19375,12.6 9.865625,11.6375 9.625,10.653125 C9.0125,8.35625 8.44375,6.0375 7.853125,3.71875 C7.74375,3.325 7.6125,2.93125 7.4375,2.559375 C7.371875,2.428125 7.175,2.253125 7.04375,2.253125 C6.934375,2.253125 6.7375,2.428125 6.69375,2.559375 C6.409375,3.434375 6.125,4.2875 5.884375,5.1625 C5.359375,7.175 4.9,9.209375 4.33125,11.2 C4.134375,11.921875 3.71875,12.6 3.325,13.25625 C2.84375,14 2.1875,14.371875 1.378125,14.39375 C0.940625,14.415625 0.503125,14.39375 0.021875,14.39375 Z"></path>
                    </g>
                    <path d="M0.021875,14.39375 C0.196875,13.69375 0.35,13.059375 0.525,12.38125 C1.3125,12.446875 1.684375,12.009375 1.903125,11.353125 C2.253125,10.2375 2.58125,9.1 2.93125,7.875 C2.034375,8.3125 1.203125,8.00625 0.30625,8.159375 C0.4375,7.590625 0.546875,7.0875 0.7,6.584375 C0.721875,6.51875 0.91875,6.453125 1.028125,6.453125 C1.75,6.43125 2.471875,6.453125 3.19375,6.453125 C3.45625,5.490625 3.696875,4.528125 3.959375,3.5875 C4.2,2.75625 4.55,1.990625 5.03125,1.26875 C6.103125,-0.328125 8.203125,-0.0875 9.1,1.3125 C9.7125,2.253125 10.040625,3.303125 10.325,4.375 C10.89375,6.60625 11.440625,8.8375 12.009375,11.06875 C12.096875,11.375 12.20625,11.68125 12.359375,11.94375 C12.578125,12.359375 12.928125,12.38125 13.103125,11.94375 C13.3875,11.2 13.628125,10.434375 13.846875,9.646875 C14.39375,7.525 14.91875,5.38125 15.465625,3.2375 C15.684375,2.384375 16.121875,1.61875 16.7125,0.940625 C17.128125,0.48125 17.63125,0.196875 18.265625,0.175 C18.746875,0.153125 19.20625,0.175 19.73125,0.175 C19.55625,0.875 19.403125,1.509375 19.228125,2.1875 C18.396875,2.078125 18.025,2.58125 17.828125,3.2375 C17.478125,4.353125 17.171875,5.46875 16.84375,6.65 C17.740625,6.234375 18.571875,6.51875 19.46875,6.409375 C19.315625,7.021875 19.184375,7.546875 19.053125,8.09375 C18.221875,8.09375 17.4125,8.09375 16.58125,8.09375 C16.428125,8.70625 16.275,9.296875 16.121875,9.8875 C15.79375,11.1125 15.465625,12.3375 14.678125,13.365625 C13.671875,14.678125 11.878125,14.7 10.85,13.409375 C10.19375,12.6 9.865625,11.6375 9.625,10.653125 C9.0125,8.35625 8.44375,6.0375 7.853125,3.71875 C7.74375,3.325 7.6125,2.93125 7.4375,2.559375 C7.371875,2.428125 7.175,2.253125 7.04375,2.253125 C6.934375,2.253125 6.7375,2.428125 6.69375,2.559375 C6.409375,3.434375 6.125,4.2875 5.884375,5.1625 C5.359375,7.175 4.9,9.209375 4.33125,11.2 C4.134375,11.921875 3.71875,12.6 3.325,13.25625 C2.84375,14 2.1875,14.371875 1.378125,14.39375 C0.940625,14.415625 0.503125,14.39375 0.021875,14.39375 Z" id="Path" fill="#FFFFFF"></path>
                </g>
            </g>
        </g>
    </g>
</svg>