<?xml version="1.0" encoding="UTF-8"?>
<svg width="28px" height="28px" viewBox="0 0 28 28" version="1.1" xmlns="http://www.w3.org/2000/svg" xmlns:xlink="http://www.w3.org/1999/xlink">
    <!-- Generator: sketchtool 53.2 (72643) - https://sketchapp.com -->
    <title>E18DC7D3-C6E9-4533-8ABA-FB80787D4FD7</title>
    <desc>Created with sketchtool.</desc>
    <defs>
        <circle id="path-1" cx="14" cy="14" r="14"></circle>
        <linearGradient x1="9.26734375%" y1="9.26734375%" x2="90.7326563%" y2="90.7326563%" id="linearGradient-3">
            <stop stop-color="#829AAF" offset="0%"></stop>
            <stop stop-color="#4C6F8C" offset="100%"></stop>
        </linearGradient>
    </defs>
    <g id="symbols" stroke="none" stroke-width="1" fill="none" fill-rule="evenodd">
        <g id="assets/icons/-coins-28px/-iconomi">
            <mask id="mask-2" fill="white">
                <use xlink:href="#path-1"></use>
            </mask>
            <use id="Oval" fill="#D8D8D8" xlink:href="#path-1"></use>
            <g id="Iconomi" mask="url(#mask-2)">
                <path d="M19.140625,28 L8.859375,28 C3.959375,28 0,24.040625 0,19.140625 L0,8.859375 C0,3.959375 3.959375,0 8.859375,0 L19.140625,0 C24.040625,0 28,3.959375 28,8.859375 L28,19.140625 C28,24.040625 24.040625,28 19.140625,28 Z" id="Path" fill="url(#linearGradient-3)"></path>
                <g id="Group" transform="translate(5.468750, 5.468750)">
                    <g opacity="0.2" transform="translate(0.437500, 0.437500)" fill="#000000" id="Path">
                        <path d="M14.13125,8.509375 C14.13125,6.103125 14.13125,3.696875 14.13125,1.3125 C14.13125,1.225 14.13125,1.1375 14.13125,1.028125 C14.153125,0.525 14.459375,0.175 14.9625,0.153125 C15.3125,0.13125 15.640625,0.13125 15.990625,0.153125 C16.40625,0.175 16.734375,0.4375 16.821875,0.853125 C16.865625,1.05 16.8875,1.246875 16.8875,1.44375 C16.8875,6.059375 16.8875,10.675 16.8875,15.3125 C16.8875,15.61875 16.865625,15.925 16.821875,16.23125 C16.778125,16.559375 16.40625,16.8875 16.0125,16.909375 C15.640625,16.93125 15.26875,16.93125 14.91875,16.909375 C14.4375,16.8875 14.109375,16.49375 14.109375,15.96875 C14.109375,13.86875 14.109375,11.790625 14.109375,9.690625 C14.13125,9.296875 14.13125,8.903125 14.13125,8.509375 Z"></path>
                        <path d="M7.56875,11.921875 C7.56875,13.190625 7.56875,14.4375 7.56875,15.70625 C7.56875,15.815625 7.56875,15.925 7.56875,16.0125 C7.503125,16.58125 7.175,16.8875 6.628125,16.909375 C6.321875,16.909375 6.015625,16.93125 5.709375,16.909375 C5.228125,16.8875 4.94375,16.625 4.85625,16.121875 C4.834375,15.903125 4.8125,15.684375 4.8125,15.465625 C4.8125,13.015625 4.8125,10.565625 4.8125,8.115625 C4.8125,7.896875 4.85625,7.678125 4.9,7.459375 C4.965625,7.175 5.1625,7 5.425,6.9125 C5.884375,6.78125 6.3875,6.759375 6.846875,6.890625 C7.328125,7 7.546875,7.284375 7.590625,7.765625 C7.6125,7.984375 7.590625,8.225 7.590625,8.465625 C7.56875,9.625 7.56875,10.784375 7.56875,11.921875 Z"></path>
                        <path d="M12.228125,13.08125 C12.228125,14 12.228125,14.896875 12.228125,15.815625 C12.228125,16.0125 12.1625,16.209375 12.11875,16.384375 C12.009375,16.734375 11.725,16.8875 11.375,16.909375 C11.025,16.93125 10.696875,16.93125 10.346875,16.909375 C9.821875,16.865625 9.515625,16.5375 9.45,16.0125 C9.45,15.946875 9.45,15.88125 9.45,15.815625 C9.45,13.978125 9.45,12.11875 9.45,10.28125 C9.45,10.128125 9.471875,9.953125 9.515625,9.8 C9.625,9.49375 9.84375,9.253125 10.19375,9.23125 C10.5875,9.209375 10.98125,9.1875 11.353125,9.209375 C11.9,9.253125 12.20625,9.603125 12.228125,10.215625 C12.25,11.15625 12.228125,12.11875 12.228125,13.08125 Z"></path>
                        <path d="M2.93125,14.21875 C2.93125,14.74375 2.93125,15.246875 2.93125,15.771875 C2.93125,16.121875 2.865625,16.45 2.559375,16.66875 C2.40625,16.778125 2.209375,16.865625 2.034375,16.8875 C1.70625,16.93125 1.378125,16.909375 1.05,16.8875 C0.503125,16.865625 0.153125,16.5375 0.153125,15.96875 C0.13125,14.7875 0.13125,13.584375 0.153125,12.403125 C0.153125,11.834375 0.525,11.484375 1.09375,11.4625 C1.4,11.4625 1.684375,11.440625 1.990625,11.4625 C2.45,11.484375 2.84375,11.746875 2.8875,12.25 C2.909375,12.446875 2.93125,12.665625 2.93125,12.8625 C2.93125,13.321875 2.93125,13.78125 2.93125,14.21875 Z"></path>
                    </g>
                    <g fill="#FFFFFF" id="Path">
                        <path d="M14.13125,8.509375 C14.13125,6.103125 14.13125,3.696875 14.13125,1.3125 C14.13125,1.225 14.13125,1.1375 14.13125,1.028125 C14.153125,0.525 14.459375,0.175 14.9625,0.153125 C15.3125,0.13125 15.640625,0.13125 15.990625,0.153125 C16.40625,0.175 16.734375,0.4375 16.821875,0.853125 C16.865625,1.05 16.8875,1.246875 16.8875,1.44375 C16.8875,6.059375 16.8875,10.675 16.8875,15.3125 C16.8875,15.61875 16.865625,15.925 16.821875,16.23125 C16.778125,16.559375 16.40625,16.8875 16.0125,16.909375 C15.640625,16.93125 15.26875,16.93125 14.91875,16.909375 C14.4375,16.8875 14.109375,16.49375 14.109375,15.96875 C14.109375,13.86875 14.109375,11.790625 14.109375,9.690625 C14.13125,9.296875 14.13125,8.903125 14.13125,8.509375 Z"></path>
                        <path d="M7.56875,11.921875 C7.56875,13.190625 7.56875,14.4375 7.56875,15.70625 C7.56875,15.815625 7.56875,15.925 7.56875,16.0125 C7.503125,16.58125 7.175,16.8875 6.628125,16.909375 C6.321875,16.909375 6.015625,16.93125 5.709375,16.909375 C5.228125,16.8875 4.94375,16.625 4.85625,16.121875 C4.834375,15.903125 4.8125,15.684375 4.8125,15.465625 C4.8125,13.015625 4.8125,10.565625 4.8125,8.115625 C4.8125,7.896875 4.85625,7.678125 4.9,7.459375 C4.965625,7.175 5.1625,7 5.425,6.9125 C5.884375,6.78125 6.3875,6.759375 6.846875,6.890625 C7.328125,7 7.546875,7.284375 7.590625,7.765625 C7.6125,7.984375 7.590625,8.225 7.590625,8.465625 C7.56875,9.625 7.56875,10.784375 7.56875,11.921875 Z"></path>
                        <path d="M12.228125,13.08125 C12.228125,14 12.228125,14.896875 12.228125,15.815625 C12.228125,16.0125 12.1625,16.209375 12.11875,16.384375 C12.009375,16.734375 11.725,16.8875 11.375,16.909375 C11.025,16.93125 10.696875,16.93125 10.346875,16.909375 C9.821875,16.865625 9.515625,16.5375 9.45,16.0125 C9.45,15.946875 9.45,15.88125 9.45,15.815625 C9.45,13.978125 9.45,12.11875 9.45,10.28125 C9.45,10.128125 9.471875,9.953125 9.515625,9.8 C9.625,9.49375 9.84375,9.253125 10.19375,9.23125 C10.5875,9.209375 10.98125,9.1875 11.353125,9.209375 C11.9,9.253125 12.20625,9.603125 12.228125,10.215625 C12.25,11.15625 12.228125,12.11875 12.228125,13.08125 Z"></path>
                        <path d="M2.93125,14.21875 C2.93125,14.74375 2.93125,15.246875 2.93125,15.771875 C2.93125,16.121875 2.865625,16.45 2.559375,16.66875 C2.40625,16.778125 2.209375,16.865625 2.034375,16.8875 C1.70625,16.93125 1.378125,16.909375 1.05,16.8875 C0.503125,16.865625 0.153125,16.5375 0.153125,15.96875 C0.13125,14.7875 0.13125,13.584375 0.153125,12.403125 C0.153125,11.834375 0.525,11.484375 1.09375,11.4625 C1.4,11.4625 1.684375,11.440625 1.990625,11.4625 C2.45,11.484375 2.84375,11.746875 2.8875,12.25 C2.909375,12.446875 2.93125,12.665625 2.93125,12.8625 C2.93125,13.321875 2.93125,13.78125 2.93125,14.21875 Z"></path>
                    </g>
                </g>
            </g>
        </g>
    </g>
</svg>