<?xml version="1.0" encoding="UTF-8"?>
<svg width="28px" height="28px" viewBox="0 0 28 28" version="1.1" xmlns="http://www.w3.org/2000/svg" xmlns:xlink="http://www.w3.org/1999/xlink">
    <!-- Generator: sketchtool 53.2 (72643) - https://sketchapp.com -->
    <title>4DD99D5C-BE7A-468A-9F3F-0A72012A719A</title>
    <desc>Created with sketchtool.</desc>
    <defs>
        <circle id="path-1" cx="14" cy="14" r="14"></circle>
        <linearGradient x1="9.2578125%" y1="9.2578125%" x2="90.7421875%" y2="90.7421875%" id="linearGradient-3">
            <stop stop-color="#F79226" offset="0%"></stop>
            <stop stop-color="#D77328" offset="100%"></stop>
        </linearGradient>
    </defs>
    <g id="symbols" stroke="none" stroke-width="1" fill="none" fill-rule="evenodd">
        <g id="assets/icons/-coins-28px/--bitconnect">
            <mask id="mask-2" fill="white">
                <use xlink:href="#path-1"></use>
            </mask>
            <use id="Oval" fill="#D8D8D8" xlink:href="#path-1"></use>
            <g id="BitConnect" mask="url(#mask-2)">
                <path d="M19.140625,28 L8.859375,28 C3.959375,28 0,24.040625 0,19.140625 L0,8.859375 C0,3.959375 3.959375,0 8.859375,0 L19.140625,0 C24.040625,0 28,3.959375 28,8.859375 L28,19.140625 C28,24.040625 24.040625,28 19.140625,28 Z" id="Path" fill="url(#linearGradient-3)"></path>
                <g id="Group" transform="translate(5.031250, 3.062500)">
                    <g opacity="0.2" transform="translate(0.437500, 0.437500)" fill="#000000" id="Path">
                        <path d="M4.790625,7.65625 C4.790625,6.759375 4.790625,5.884375 4.790625,5.009375 C4.790625,4.94375 4.68125,4.834375 4.615625,4.790625 C4.025,4.375 3.740625,3.828125 3.828125,3.128125 C3.915625,2.40625 4.309375,1.903125 4.9875,1.640625 C5.840625,1.334375 6.78125,1.728125 7.175,2.559375 C7.546875,3.390625 7.2625,4.353125 6.475,4.8125 C6.321875,4.9 6.278125,4.9875 6.278125,5.140625 C6.278125,5.884375 6.278125,6.628125 6.25625,7.371875 C6.25625,7.48125 6.25625,7.65625 6.25625,7.65625 C6.25625,7.65625 6.43125,7.7 6.51875,7.7 C6.825,7.765625 7.13125,7.853125 7.415625,7.9625 C7.503125,8.00625 7.590625,8.05 7.590625,8.05 C7.590625,8.05 7.721875,7.940625 7.765625,7.91875 C9.121875,6.759375 10.5,5.6 11.85625,4.440625 C12.446875,3.9375 13.015625,3.45625 13.60625,2.953125 C13.69375,2.865625 13.759375,2.8 13.715625,2.646875 C13.51875,1.815625 13.759375,1.09375 14.415625,0.56875 C15.071875,0.04375 15.79375,-0.04375 16.559375,0.328125 C17.303125,0.7 17.696875,1.3125 17.71875,2.14375 C17.7625,3.5875 16.23125,4.615625 14.896875,4.046875 C14.74375,3.98125 14.65625,4.003125 14.546875,4.1125 C12.6875,5.64375 10.85,7.13125 9.0125,8.61875 C8.946875,8.684375 8.88125,8.75 8.79375,8.815625 C11.003125,10.653125 11.33125,13.9125 9.515625,16.23125 C10.040625,16.865625 10.565625,17.478125 11.1125,18.1125 C11.15625,18.15625 11.2875,18.178125 11.375,18.15625 C12.315625,17.98125 13.234375,18.571875 13.453125,19.5125 C13.69375,20.453125 13.146875,21.415625 12.20625,21.678125 C11.50625,21.875 10.89375,21.721875 10.390625,21.196875 C9.8875,20.69375 9.75625,20.059375 9.975,19.38125 C10.01875,19.25 10.01875,19.1625 9.909375,19.053125 C9.471875,18.528125 9.034375,17.98125 8.596875,17.45625 C8.53125,17.390625 8.465625,17.303125 8.421875,17.2375 C5.46875,19.184375 1.75,17.784375 0.6125,14.853125 C5.55111512e-17,13.25625 0.0875,11.703125 0.9625,10.2375 C1.8375,8.728125 3.15,7.91875 4.790625,7.65625 Z"></path>
                    </g>
                    <path d="M4.790625,7.65625 C4.790625,6.759375 4.790625,5.884375 4.790625,5.009375 C4.790625,4.94375 4.68125,4.834375 4.615625,4.790625 C4.025,4.375 3.740625,3.828125 3.828125,3.128125 C3.915625,2.40625 4.309375,1.903125 4.9875,1.640625 C5.840625,1.334375 6.78125,1.728125 7.175,2.559375 C7.546875,3.390625 7.2625,4.353125 6.475,4.8125 C6.321875,4.9 6.278125,4.9875 6.278125,5.140625 C6.278125,5.884375 6.278125,6.628125 6.25625,7.371875 C6.25625,7.48125 6.25625,7.65625 6.25625,7.65625 C6.25625,7.65625 6.43125,7.7 6.51875,7.7 C6.825,7.765625 7.13125,7.853125 7.415625,7.9625 C7.503125,8.00625 7.590625,8.05 7.590625,8.05 C7.590625,8.05 7.721875,7.940625 7.765625,7.91875 C9.121875,6.759375 10.5,5.6 11.85625,4.440625 C12.446875,3.9375 13.015625,3.45625 13.60625,2.953125 C13.69375,2.865625 13.759375,2.8 13.715625,2.646875 C13.51875,1.815625 13.759375,1.09375 14.415625,0.56875 C15.071875,0.04375 15.79375,-0.04375 16.559375,0.328125 C17.303125,0.7 17.696875,1.3125 17.71875,2.14375 C17.7625,3.5875 16.23125,4.615625 14.896875,4.046875 C14.74375,3.98125 14.65625,4.003125 14.546875,4.1125 C12.6875,5.64375 10.85,7.13125 9.0125,8.61875 C8.946875,8.684375 8.88125,8.75 8.79375,8.815625 C11.003125,10.653125 11.33125,13.9125 9.515625,16.23125 C10.040625,16.865625 10.565625,17.478125 11.1125,18.1125 C11.15625,18.15625 11.2875,18.178125 11.375,18.15625 C12.315625,17.98125 13.234375,18.571875 13.453125,19.5125 C13.69375,20.453125 13.146875,21.415625 12.20625,21.678125 C11.50625,21.875 10.89375,21.721875 10.390625,21.196875 C9.8875,20.69375 9.75625,20.059375 9.975,19.38125 C10.01875,19.25 10.01875,19.1625 9.909375,19.053125 C9.471875,18.528125 9.034375,17.98125 8.596875,17.45625 C8.53125,17.390625 8.465625,17.303125 8.421875,17.2375 C5.46875,19.184375 1.75,17.784375 0.6125,14.853125 C5.55111512e-17,13.25625 0.0875,11.703125 0.9625,10.2375 C1.8375,8.728125 3.15,7.91875 4.790625,7.65625 Z" id="Path" fill="#FFFFFF"></path>
                </g>
            </g>
        </g>
    </g>
</svg>