<?xml version="1.0" encoding="UTF-8"?>
<svg width="28px" height="28px" viewBox="0 0 28 28" version="1.1" xmlns="http://www.w3.org/2000/svg" xmlns:xlink="http://www.w3.org/1999/xlink">
    <!-- Generator: sketchtool 53.2 (72643) - https://sketchapp.com -->
    <title>F755A2C1-B52E-4977-BB58-B536D04DF770</title>
    <desc>Created with sketchtool.</desc>
    <defs>
        <circle id="path-1" cx="14" cy="14" r="14"></circle>
        <linearGradient x1="9.26734375%" y1="9.26734375%" x2="90.7326563%" y2="90.7326563%" id="linearGradient-3">
            <stop stop-color="#616264" offset="0%"></stop>
            <stop stop-color="#000000" offset="100%"></stop>
        </linearGradient>
    </defs>
    <g id="symbols" stroke="none" stroke-width="1" fill="none" fill-rule="evenodd">
        <g id="assets/icons/-coins-28px/-eos">
            <mask id="mask-2" fill="white">
                <use xlink:href="#path-1"></use>
            </mask>
            <use id="Oval" fill="#D8D8D8" xlink:href="#path-1"></use>
            <g id="EOS" mask="url(#mask-2)">
                <path d="M19.140625,28 L8.859375,28 C3.959375,28 0,24.040625 0,19.140625 L0,8.859375 C0,3.959375 3.959375,0 8.859375,0 L19.140625,0 C24.040625,0 28,3.959375 28,8.859375 L28,19.140625 C28,24.040625 24.040625,28 19.140625,28 Z" id="Path" fill="url(#linearGradient-3)"></path>
                <g id="Group" transform="translate(6.125000, 2.187500)" fill-rule="nonzero">
                    <g opacity="0.2" transform="translate(0.437500, 0.437500)" fill="#000000" id="Shape">
                        <path d="M7.875,23.45 C7.875,23.45 7.875,23.45 7.875,23.45 C7.7875,23.45 7.7,23.428125 7.634375,23.384375 L0.2625,18.76875 C0.196875,18.725 0.13125,18.659375 0.109375,18.59375 C0.0875,18.571875 0.0875,18.528125 0.0875,18.50625 C0.065625,18.440625 0.065625,18.396875 0.0875,18.33125 C0.0875,18.33125 0.0875,18.309375 0.0875,18.309375 L2.49375,7.328125 C2.49375,7.284375 2.515625,7.2625 2.5375,7.21875 C2.5375,7.21875 2.5375,7.21875 2.5375,7.21875 C2.5375,7.21875 2.5375,7.21875 2.5375,7.21875 C2.5375,7.21875 2.5375,7.21875 2.5375,7.21875 C2.5375,7.21875 2.5375,7.21875 2.5375,7.21875 L2.5375,7.21875 C2.5375,7.21875 2.5375,7.21875 2.5375,7.21875 L2.5375,7.21875 C2.5375,7.21875 2.5375,7.21875 2.5375,7.21875 C2.5375,7.21875 2.5375,7.21875 2.5375,7.21875 C2.5375,7.21875 2.5375,7.21875 2.5375,7.21875 C2.5375,7.21875 2.5375,7.21875 2.5375,7.21875 C2.5375,7.21875 2.5375,7.21875 2.5375,7.21875 C2.5375,7.21875 2.5375,7.21875 2.5375,7.21875 C2.5375,7.196875 2.559375,7.175 2.58125,7.153125 L7.546875,0.371875 C7.634375,0.2625 7.765625,0.196875 7.896875,0.196875 C7.896875,0.196875 7.896875,0.196875 7.896875,0.196875 C8.028125,0.196875 8.159375,0.2625 8.246875,0.371875 L13.2125,7.153125 C13.25625,7.196875 13.278125,7.2625 13.3,7.328125 L15.70625,18.309375 C15.70625,18.309375 15.70625,18.33125 15.70625,18.33125 C15.70625,18.33125 15.70625,18.33125 15.70625,18.33125 C15.70625,18.33125 15.70625,18.33125 15.70625,18.33125 C15.70625,18.396875 15.70625,18.4625 15.70625,18.50625 L15.70625,18.50625 C15.70625,18.50625 15.70625,18.50625 15.70625,18.50625 L15.70625,18.50625 C15.70625,18.528125 15.684375,18.55 15.684375,18.59375 C15.684375,18.59375 15.684375,18.59375 15.684375,18.59375 L15.684375,18.59375 C15.640625,18.659375 15.596875,18.725 15.53125,18.76875 L8.159375,23.384375 C8.05,23.428125 7.9625,23.45 7.875,23.45 Z M2.0125,18.834375 L7.0875,22.028125 L6.08125,18.834375 L2.0125,18.834375 Z M9.66875,18.834375 L8.6625,22.028125 L13.7375,18.834375 L9.66875,18.834375 Z M7,18.834375 L7.875,21.590625 L8.75,18.834375 L7,18.834375 Z M9.953125,17.959375 L14.503125,17.959375 L11.59375,12.796875 L9.953125,17.959375 Z M6.715625,17.959375 L9.034375,17.959375 L11.003125,11.76875 L7.875,6.25625 L4.746875,11.76875 L6.715625,17.959375 Z M1.246875,17.959375 L5.796875,17.959375 L4.15625,12.796875 L1.246875,17.959375 Z M11.94375,11.68125 L14.21875,15.6625 L12.775,9.078125 L11.94375,11.68125 Z M2.975,9.078125 L1.53125,15.6625 L3.784375,11.68125 L2.975,9.078125 Z M8.3125,5.25 L11.375,10.63125 L12.38125,7.48125 L8.3125,1.946875 L8.3125,5.25 Z M3.390625,7.48125 L4.375,10.63125 L7.4375,5.25 L7.4375,1.946875 L3.390625,7.48125 Z"></path>
                    </g>
                    <path d="M7.875,23.45 C7.875,23.45 7.875,23.45 7.875,23.45 C7.7875,23.45 7.7,23.428125 7.634375,23.384375 L0.2625,18.76875 C0.196875,18.725 0.13125,18.659375 0.109375,18.59375 C0.0875,18.571875 0.0875,18.528125 0.0875,18.50625 C0.065625,18.440625 0.065625,18.396875 0.0875,18.33125 C0.0875,18.33125 0.0875,18.309375 0.0875,18.309375 L2.49375,7.328125 C2.49375,7.284375 2.515625,7.2625 2.5375,7.21875 C2.5375,7.21875 2.5375,7.21875 2.5375,7.21875 C2.5375,7.21875 2.5375,7.21875 2.5375,7.21875 C2.5375,7.21875 2.5375,7.21875 2.5375,7.21875 C2.5375,7.21875 2.5375,7.21875 2.5375,7.21875 L2.5375,7.21875 C2.5375,7.21875 2.5375,7.21875 2.5375,7.21875 L2.5375,7.21875 C2.5375,7.21875 2.5375,7.21875 2.5375,7.21875 C2.5375,7.21875 2.5375,7.21875 2.5375,7.21875 C2.5375,7.21875 2.5375,7.21875 2.5375,7.21875 C2.5375,7.21875 2.5375,7.21875 2.5375,7.21875 C2.5375,7.21875 2.5375,7.21875 2.5375,7.21875 C2.5375,7.21875 2.5375,7.21875 2.5375,7.21875 C2.5375,7.196875 2.559375,7.175 2.58125,7.153125 L7.546875,0.371875 C7.634375,0.2625 7.765625,0.196875 7.896875,0.196875 C7.896875,0.196875 7.896875,0.196875 7.896875,0.196875 C8.028125,0.196875 8.159375,0.2625 8.246875,0.371875 L13.2125,7.153125 C13.25625,7.196875 13.278125,7.2625 13.3,7.328125 L15.70625,18.309375 C15.70625,18.309375 15.70625,18.33125 15.70625,18.33125 C15.70625,18.33125 15.70625,18.33125 15.70625,18.33125 C15.70625,18.33125 15.70625,18.33125 15.70625,18.33125 C15.70625,18.396875 15.70625,18.4625 15.70625,18.50625 L15.70625,18.50625 C15.70625,18.50625 15.70625,18.50625 15.70625,18.50625 L15.70625,18.50625 C15.70625,18.528125 15.684375,18.55 15.684375,18.59375 C15.684375,18.59375 15.684375,18.59375 15.684375,18.59375 L15.684375,18.59375 C15.640625,18.659375 15.596875,18.725 15.53125,18.76875 L8.159375,23.384375 C8.05,23.428125 7.9625,23.45 7.875,23.45 Z M2.0125,18.834375 L7.0875,22.028125 L6.08125,18.834375 L2.0125,18.834375 Z M9.66875,18.834375 L8.6625,22.028125 L13.7375,18.834375 L9.66875,18.834375 Z M7,18.834375 L7.875,21.590625 L8.75,18.834375 L7,18.834375 Z M9.953125,17.959375 L14.503125,17.959375 L11.59375,12.796875 L9.953125,17.959375 Z M6.715625,17.959375 L9.034375,17.959375 L11.003125,11.76875 L7.875,6.25625 L4.746875,11.76875 L6.715625,17.959375 Z M1.246875,17.959375 L5.796875,17.959375 L4.15625,12.796875 L1.246875,17.959375 Z M11.94375,11.68125 L14.21875,15.6625 L12.775,9.078125 L11.94375,11.68125 Z M2.975,9.078125 L1.53125,15.6625 L3.784375,11.68125 L2.975,9.078125 Z M8.3125,5.25 L11.375,10.63125 L12.38125,7.48125 L8.3125,1.946875 L8.3125,5.25 Z M3.390625,7.48125 L4.375,10.63125 L7.4375,5.25 L7.4375,1.946875 L3.390625,7.48125 Z" id="Shape" fill="#FFFFFF"></path>
                </g>
            </g>
        </g>
    </g>
</svg>