<?xml version="1.0" encoding="UTF-8"?>
<svg width="28px" height="28px" viewBox="0 0 28 28" version="1.1" xmlns="http://www.w3.org/2000/svg" xmlns:xlink="http://www.w3.org/1999/xlink">
    <!-- Generator: sketchtool 53.2 (72643) - https://sketchapp.com -->
    <title>8624F2E5-51CA-45CE-B5D5-9227E784115C</title>
    <desc>Created with sketchtool.</desc>
    <defs>
        <circle id="path-1" cx="14" cy="14" r="14"></circle>
        <linearGradient x1="9.2578125%" y1="9.2578125%" x2="90.7421875%" y2="90.7421875%" id="linearGradient-3">
            <stop stop-color="#1F75BC" offset="0%"></stop>
            <stop stop-color="#175D95" offset="100%"></stop>
        </linearGradient>
    </defs>
    <g id="symbols" stroke="none" stroke-width="1" fill="none" fill-rule="evenodd">
        <g id="assets/icons/-coins-28px/--dash">
            <mask id="mask-2" fill="white">
                <use xlink:href="#path-1"></use>
            </mask>
            <use id="Oval" fill="#D8D8D8" xlink:href="#path-1"></use>
            <g id="Dash" mask="url(#mask-2)">
                <path d="M19.140625,28 L8.859375,28 C3.959375,28 0,24.040625 0,19.140625 L0,8.859375 C0,3.959375 3.959375,0 8.859375,0 L19.140625,0 C24.040625,0 28,3.959375 28,8.859375 L28,19.140625 C28,24.040625 24.040625,28 19.140625,28 Z" id="Path" fill="url(#linearGradient-3)"></path>
                <g id="Group" transform="translate(4.156250, 8.093750)">
                    <g opacity="0.2" transform="translate(0.437500, 0.437500)" fill="#000000" id="Path">
                        <path d="M0.634375,11.221875 C0.940625,10.325 1.225,9.49375 1.53125,8.640625 C1.553125,8.553125 1.728125,8.4875 1.815625,8.4875 C2.31875,8.465625 2.84375,8.4875 3.346875,8.4875 C6.69375,8.4875 10.01875,8.4875 13.365625,8.4875 C13.628125,8.4875 13.759375,8.4 13.825,8.159375 C14.371875,6.51875 14.9625,4.878125 15.53125,3.2375 C15.553125,3.15 15.575,3.0625 15.61875,2.93125 C11.571875,2.93125 7.546875,2.93125 3.478125,2.93125 C3.784375,2.0125 4.090625,1.159375 4.375,0.30625 C4.396875,0.240625 4.528125,0.175 4.615625,0.175 C4.921875,0.153125 5.228125,0.175 5.534375,0.175 C9.646875,0.175 13.759375,0.196875 17.85,0.153125 C19.075,0.13125 20.3875,1.09375 19.8625,2.8875 C19.46875,4.221875 18.965625,5.534375 18.50625,6.86875 C18.353125,7.328125 18.2,7.765625 18.046875,8.225 C17.478125,9.8 16.31875,10.7625 14.721875,11.2 C14.56875,11.24375 14.415625,11.24375 14.2625,11.24375 C9.821875,11.24375 5.403125,11.24375 0.9625,11.24375 C0.875,11.221875 0.765625,11.221875 0.634375,11.221875 Z"></path>
                        <path d="M8.3125,4.396875 C8.00625,5.271875 7.7,6.08125 7.39375,6.890625 C7.371875,6.95625 7.240625,7 7.175,7 C4.878125,7 2.58125,7 0.284375,7 C0.2625,7 0.21875,6.978125 0.153125,6.95625 C0.4375,6.146875 0.721875,5.359375 1.028125,4.571875 C1.05,4.50625 1.18125,4.41875 1.246875,4.41875 C3.5875,4.396875 5.90625,4.396875 8.3125,4.396875 Z"></path>
                    </g>
                    <g fill="#FFFFFF" id="Path">
                        <path d="M0.634375,11.221875 C0.940625,10.325 1.225,9.49375 1.53125,8.640625 C1.553125,8.553125 1.728125,8.4875 1.815625,8.4875 C2.31875,8.465625 2.84375,8.4875 3.346875,8.4875 C6.69375,8.4875 10.01875,8.4875 13.365625,8.4875 C13.628125,8.4875 13.759375,8.4 13.825,8.159375 C14.371875,6.51875 14.9625,4.878125 15.53125,3.2375 C15.553125,3.15 15.575,3.0625 15.61875,2.93125 C11.571875,2.93125 7.546875,2.93125 3.478125,2.93125 C3.784375,2.0125 4.090625,1.159375 4.375,0.30625 C4.396875,0.240625 4.528125,0.175 4.615625,0.175 C4.921875,0.153125 5.228125,0.175 5.534375,0.175 C9.646875,0.175 13.759375,0.196875 17.85,0.153125 C19.075,0.13125 20.3875,1.09375 19.8625,2.8875 C19.46875,4.221875 18.965625,5.534375 18.50625,6.86875 C18.353125,7.328125 18.2,7.765625 18.046875,8.225 C17.478125,9.8 16.31875,10.7625 14.721875,11.2 C14.56875,11.24375 14.415625,11.24375 14.2625,11.24375 C9.821875,11.24375 5.403125,11.24375 0.9625,11.24375 C0.875,11.221875 0.765625,11.221875 0.634375,11.221875 Z"></path>
                        <path d="M8.3125,4.396875 C8.00625,5.271875 7.7,6.08125 7.39375,6.890625 C7.371875,6.95625 7.240625,7 7.175,7 C4.878125,7 2.58125,7 0.284375,7 C0.2625,7 0.21875,6.978125 0.153125,6.95625 C0.4375,6.146875 0.721875,5.359375 1.028125,4.571875 C1.05,4.50625 1.18125,4.41875 1.246875,4.41875 C3.5875,4.396875 5.90625,4.396875 8.3125,4.396875 Z"></path>
                    </g>
                </g>
            </g>
        </g>
    </g>
</svg>