<?xml version="1.0" encoding="UTF-8"?>
<svg width="28px" height="28px" viewBox="0 0 28 28" version="1.1" xmlns="http://www.w3.org/2000/svg" xmlns:xlink="http://www.w3.org/1999/xlink">
    <!-- Generator: sketchtool 53.2 (72643) - https://sketchapp.com -->
    <title>F3FD3862-80AF-4AE2-97F8-6243E5689443</title>
    <desc>Created with sketchtool.</desc>
    <defs>
        <circle id="path-1" cx="14" cy="14" r="14"></circle>
        <linearGradient x1="9.26734375%" y1="9.26734375%" x2="90.7326563%" y2="90.7326563%" id="linearGradient-3">
            <stop stop-color="#7E3C6D" offset="0%"></stop>
            <stop stop-color="#612953" offset="100%"></stop>
        </linearGradient>
    </defs>
    <g id="symbols" stroke="none" stroke-width="1" fill="none" fill-rule="evenodd">
        <g id="assets/icons/-coins-28px/--augur">
            <mask id="mask-2" fill="white">
                <use xlink:href="#path-1"></use>
            </mask>
            <use id="Oval" fill="#D8D8D8" xlink:href="#path-1"></use>
            <g id="Augur" mask="url(#mask-2)">
                <path d="M19.140625,28 L8.859375,28 C3.959375,28 0,24.040625 0,19.140625 L0,8.859375 C0,3.959375 3.959375,0 8.859375,0 L19.140625,0 C24.040625,0 28,3.959375 28,8.859375 L28,19.140625 C28,24.040625 24.040625,28 19.140625,28 Z" id="Path" fill="url(#linearGradient-3)"></path>
                <g id="Group" transform="translate(5.031250, 3.500000)" fill-rule="nonzero">
                    <g opacity="0.2" transform="translate(0.437500, 0.437500)" fill="#000000" id="Shape">
                        <path d="M8.96875,20.95625 C8.771875,20.86875 8.596875,20.803125 8.44375,20.715625 C5.8625,19.184375 3.259375,17.63125 0.678125,16.078125 C0.0875,15.728125 -0.021875,15.378125 0.328125,14.74375 C2.953125,10.040625 5.578125,5.3375 8.18125,0.634375 C8.35625,0.30625 8.575,0.065625 8.96875,0.065625 C9.3625,0.065625 9.58125,0.328125 9.75625,0.65625 C12.359375,5.3375 14.984375,10.040625 17.5875,14.721875 C17.9375,15.35625 17.85,15.70625 17.2375,16.078125 C14.678125,17.609375 12.11875,19.140625 9.559375,20.671875 C9.384375,20.78125 9.1875,20.86875 8.96875,20.95625 Z M8.05,16.1 C7.4375,15.728125 6.846875,15.378125 6.25625,15.028125 C5.81875,14.765625 5.403125,14.459375 4.965625,14.196875 C4.790625,14.0875 4.528125,14 4.33125,14.065625 C3.259375,14.371875 2.275,14.91875 1.26875,15.553125 C3.740625,17.01875 6.125,18.4625 8.575,19.928125 C8.575,18.94375 8.596875,18.046875 8.575,17.15 C8.553125,16.603125 8.771875,16.165625 9.14375,15.815625 C9.40625,15.575 9.7125,15.35625 10.01875,15.203125 C10.89375,14.7875 11.59375,14.21875 11.9875,13.25625 C12.1625,13.540625 12.315625,13.759375 12.46875,14 C12.053125,14.765625 11.440625,15.3125 10.696875,15.70625 C10.346875,15.88125 10.01875,16.1 9.7125,16.340625 C9.559375,16.471875 9.3625,16.690625 9.3625,16.865625 C9.31875,17.85 9.340625,18.85625 9.340625,19.928125 C11.790625,18.4625 14.153125,17.040625 16.625,15.575 C15.6625,15.09375 14.7875,14.634375 13.9125,14.21875 C13.278125,13.9125 12.840625,13.475 12.578125,12.840625 C12.403125,12.403125 12.25,11.94375 12.11875,11.4625 C11.790625,10.19375 11.025,9.3625 9.75625,8.990625 C9.625,8.946875 9.471875,8.925 9.31875,8.88125 C9.84375,8.1375 9.84375,8.1375 10.609375,8.4875 C11.76875,9.034375 12.55625,9.93125 12.81875,11.178125 C13.08125,12.490625 13.65,13.475 14.984375,13.9125 C15.334375,14.021875 15.6625,14.240625 15.990625,14.415625 C16.1875,14.503125 16.3625,14.590625 16.559375,14.678125 C16.58125,14.65625 16.603125,14.634375 16.625,14.590625 C14.2625,10.303125 11.878125,6.015625 9.471875,1.728125 C9.428125,1.728125 9.384375,1.75 9.340625,1.75 C9.340625,1.903125 9.340625,2.078125 9.340625,2.23125 C9.340625,3.7625 9.296875,5.29375 9.3625,6.825 C9.384375,7.721875 9.034375,8.3125 8.3125,8.771875 C8.05,8.946875 7.7875,9.1 7.503125,9.23125 C6.628125,9.66875 6.0375,10.36875 5.840625,11.309375 C5.73125,11.834375 5.753125,12.38125 5.73125,12.90625 C4.921875,12.665625 4.921875,12.665625 4.9875,11.790625 C5.11875,10.303125 5.884375,9.23125 7.175,8.509375 C7.525,8.3125 7.896875,8.1375 8.18125,7.853125 C8.378125,7.65625 8.553125,7.328125 8.553125,7.04375 C8.596875,5.359375 8.575,3.675 8.575,1.96875 C8.575,1.88125 8.553125,1.771875 8.509375,1.596875 C6.103125,5.971875 3.740625,10.215625 1.334375,14.546875 C2.165625,14.153125 2.909375,13.825 3.653125,13.475 C4.265625,13.190625 4.878125,13.234375 5.446875,13.540625 C5.81875,13.7375 6.190625,13.934375 6.51875,14.21875 C7.13125,14.765625 7.7875,15.203125 8.6625,15.3125 C8.44375,15.575 8.3125,15.771875 8.05,16.1 Z"></path>
                    </g>
                    <path d="M8.96875,20.95625 C8.771875,20.86875 8.596875,20.803125 8.44375,20.715625 C5.8625,19.184375 3.259375,17.63125 0.678125,16.078125 C0.0875,15.728125 -0.021875,15.378125 0.328125,14.74375 C2.953125,10.040625 5.578125,5.3375 8.18125,0.634375 C8.35625,0.30625 8.575,0.065625 8.96875,0.065625 C9.3625,0.065625 9.58125,0.328125 9.75625,0.65625 C12.359375,5.3375 14.984375,10.040625 17.5875,14.721875 C17.9375,15.35625 17.85,15.70625 17.2375,16.078125 C14.678125,17.609375 12.11875,19.140625 9.559375,20.671875 C9.384375,20.78125 9.1875,20.86875 8.96875,20.95625 Z M8.05,16.1 C7.4375,15.728125 6.846875,15.378125 6.25625,15.028125 C5.81875,14.765625 5.403125,14.459375 4.965625,14.196875 C4.790625,14.0875 4.528125,14 4.33125,14.065625 C3.259375,14.371875 2.275,14.91875 1.26875,15.553125 C3.740625,17.01875 6.125,18.4625 8.575,19.928125 C8.575,18.94375 8.596875,18.046875 8.575,17.15 C8.553125,16.603125 8.771875,16.165625 9.14375,15.815625 C9.40625,15.575 9.7125,15.35625 10.01875,15.203125 C10.89375,14.7875 11.59375,14.21875 11.9875,13.25625 C12.1625,13.540625 12.315625,13.759375 12.46875,14 C12.053125,14.765625 11.440625,15.3125 10.696875,15.70625 C10.346875,15.88125 10.01875,16.1 9.7125,16.340625 C9.559375,16.471875 9.3625,16.690625 9.3625,16.865625 C9.31875,17.85 9.340625,18.85625 9.340625,19.928125 C11.790625,18.4625 14.153125,17.040625 16.625,15.575 C15.6625,15.09375 14.7875,14.634375 13.9125,14.21875 C13.278125,13.9125 12.840625,13.475 12.578125,12.840625 C12.403125,12.403125 12.25,11.94375 12.11875,11.4625 C11.790625,10.19375 11.025,9.3625 9.75625,8.990625 C9.625,8.946875 9.471875,8.925 9.31875,8.88125 C9.84375,8.1375 9.84375,8.1375 10.609375,8.4875 C11.76875,9.034375 12.55625,9.93125 12.81875,11.178125 C13.08125,12.490625 13.65,13.475 14.984375,13.9125 C15.334375,14.021875 15.6625,14.240625 15.990625,14.415625 C16.1875,14.503125 16.3625,14.590625 16.559375,14.678125 C16.58125,14.65625 16.603125,14.634375 16.625,14.590625 C14.2625,10.303125 11.878125,6.015625 9.471875,1.728125 C9.428125,1.728125 9.384375,1.75 9.340625,1.75 C9.340625,1.903125 9.340625,2.078125 9.340625,2.23125 C9.340625,3.7625 9.296875,5.29375 9.3625,6.825 C9.384375,7.721875 9.034375,8.3125 8.3125,8.771875 C8.05,8.946875 7.7875,9.1 7.503125,9.23125 C6.628125,9.66875 6.0375,10.36875 5.840625,11.309375 C5.73125,11.834375 5.753125,12.38125 5.73125,12.90625 C4.921875,12.665625 4.921875,12.665625 4.9875,11.790625 C5.11875,10.303125 5.884375,9.23125 7.175,8.509375 C7.525,8.3125 7.896875,8.1375 8.18125,7.853125 C8.378125,7.65625 8.553125,7.328125 8.553125,7.04375 C8.596875,5.359375 8.575,3.675 8.575,1.96875 C8.575,1.88125 8.553125,1.771875 8.509375,1.596875 C6.103125,5.971875 3.740625,10.215625 1.334375,14.546875 C2.165625,14.153125 2.909375,13.825 3.653125,13.475 C4.265625,13.190625 4.878125,13.234375 5.446875,13.540625 C5.81875,13.7375 6.190625,13.934375 6.51875,14.21875 C7.13125,14.765625 7.7875,15.203125 8.6625,15.3125 C8.44375,15.575 8.3125,15.771875 8.05,16.1 Z" id="Shape" fill="#FFFFFF"></path>
                </g>
            </g>
        </g>
    </g>
</svg>