<?xml version="1.0" encoding="UTF-8"?>
<svg width="28px" height="28px" viewBox="0 0 28 28" version="1.1" xmlns="http://www.w3.org/2000/svg" xmlns:xlink="http://www.w3.org/1999/xlink">
    <!-- Generator: sketchtool 53.2 (72643) - https://sketchapp.com -->
    <title>0802B98E-72DC-435A-902C-98649CB0C770</title>
    <desc>Created with sketchtool.</desc>
    <defs>
        <circle id="path-1" cx="14" cy="14" r="14"></circle>
        <linearGradient x1="9.26734375%" y1="9.26734375%" x2="90.7326563%" y2="90.7326563%" id="linearGradient-3">
            <stop stop-color="#3EBB9A" offset="0%"></stop>
            <stop stop-color="#038675" offset="100%"></stop>
        </linearGradient>
    </defs>
    <g id="symbols" stroke="none" stroke-width="1" fill="none" fill-rule="evenodd">
        <g id="assets/icons/-coins-28px/-siacoin">
            <mask id="mask-2" fill="white">
                <use xlink:href="#path-1"></use>
            </mask>
            <use id="Oval" fill="#D8D8D8" xlink:href="#path-1"></use>
            <g id="Siacoin" mask="url(#mask-2)">
                <path d="M19.140625,28 L8.859375,28 C3.959375,28 0,24.040625 0,19.140625 L0,8.859375 C0,3.959375 3.959375,0 8.859375,0 L19.140625,0 C24.040625,0 28,3.959375 28,8.859375 L28,19.140625 C28,24.040625 24.040625,28 19.140625,28 Z" id="Path" fill="url(#linearGradient-3)"></path>
                <g id="Group" transform="translate(5.468750, 5.468750)" fill-rule="nonzero">
                    <g opacity="0.2" transform="translate(0.437500, 0.437500)" fill="#000000" id="Shape">
                        <path d="M16.909375,15.771875 C16.909375,16.428125 16.45,16.909375 15.79375,16.909375 C14.2625,16.909375 12.73125,16.93125 11.2,16.909375 C8.465625,16.84375 6.16875,14.7 5.8625,11.965625 C5.753125,10.98125 5.90625,10.0625 6.278125,9.165625 C6.803125,7.896875 6.628125,6.95625 5.665625,5.99375 C4.6375,4.965625 3.609375,3.959375 2.603125,2.93125 C2.275,2.603125 1.925,2.471875 1.465625,2.515625 C0.765625,2.58125 0.175,2.05625 0.13125,1.378125 C0.109375,0.721875 0.65625,0.175 1.3125,0.153125 C2.0125,0.153125 2.5375,0.7 2.49375,1.421875 C2.45,1.925 2.625,2.296875 2.975,2.646875 C3.98125,3.63125 4.9875,4.659375 5.99375,5.665625 C6.95625,6.628125 7.91875,6.825 9.165625,6.278125 C12.446875,4.878125 16.23125,6.890625 16.8,10.36875 C16.975,11.375 16.93125,15.00625 16.909375,15.771875 Z M14.7,12.425 C14.7,12.425 14.7,12.425 14.7,12.425 C14.7,12.11875 14.7,11.790625 14.7,11.484375 C14.721875,8.990625 12.578125,7.83125 10.98125,8.05 C9.340625,8.26875 8.05,9.646875 8.05,11.2875 C8.028125,13.015625 9.275,14.459375 10.9375,14.6125 C11.878125,14.7 12.81875,14.678125 13.759375,14.65625 C14.30625,14.65625 14.65625,14.284375 14.678125,13.715625 C14.7,13.3 14.7,12.8625 14.7,12.425 Z"></path>
                    </g>
                    <path d="M16.909375,15.771875 C16.909375,16.428125 16.45,16.909375 15.79375,16.909375 C14.2625,16.909375 12.73125,16.93125 11.2,16.909375 C8.465625,16.84375 6.16875,14.7 5.8625,11.965625 C5.753125,10.98125 5.90625,10.0625 6.278125,9.165625 C6.803125,7.896875 6.628125,6.95625 5.665625,5.99375 C4.6375,4.965625 3.609375,3.959375 2.603125,2.93125 C2.275,2.603125 1.925,2.471875 1.465625,2.515625 C0.765625,2.58125 0.175,2.05625 0.13125,1.378125 C0.109375,0.721875 0.65625,0.175 1.3125,0.153125 C2.0125,0.153125 2.5375,0.7 2.49375,1.421875 C2.45,1.925 2.625,2.296875 2.975,2.646875 C3.98125,3.63125 4.9875,4.659375 5.99375,5.665625 C6.95625,6.628125 7.91875,6.825 9.165625,6.278125 C12.446875,4.878125 16.23125,6.890625 16.8,10.36875 C16.975,11.375 16.93125,15.00625 16.909375,15.771875 Z M14.7,12.425 C14.7,12.425 14.7,12.425 14.7,12.425 C14.7,12.11875 14.7,11.790625 14.7,11.484375 C14.721875,8.990625 12.578125,7.83125 10.98125,8.05 C9.340625,8.26875 8.05,9.646875 8.05,11.2875 C8.028125,13.015625 9.275,14.459375 10.9375,14.6125 C11.878125,14.7 12.81875,14.678125 13.759375,14.65625 C14.30625,14.65625 14.65625,14.284375 14.678125,13.715625 C14.7,13.3 14.7,12.8625 14.7,12.425 Z" id="Shape" fill="#FFFFFF"></path>
                </g>
            </g>
        </g>
    </g>
</svg>