<?xml version="1.0" encoding="UTF-8"?>
<svg width="28px" height="28px" viewBox="0 0 28 28" version="1.1" xmlns="http://www.w3.org/2000/svg" xmlns:xlink="http://www.w3.org/1999/xlink">
    <!-- Generator: sketchtool 53.2 (72643) - https://sketchapp.com -->
    <title>1B859EAA-6D69-4208-BF13-EEAD643E419B</title>
    <desc>Created with sketchtool.</desc>
    <defs>
        <circle id="path-1" cx="14" cy="14" r="14"></circle>
        <linearGradient x1="9.26734375%" y1="9.26734375%" x2="90.7326563%" y2="90.7326563%" id="linearGradient-3">
            <stop stop-color="#FFD05B" offset="0%"></stop>
            <stop stop-color="#D08A29" offset="100%"></stop>
        </linearGradient>
    </defs>
    <g id="symbols" stroke="none" stroke-width="1" fill="none" fill-rule="evenodd">
        <g id="assets/icons/-coins-28px/-zcash">
            <mask id="mask-2" fill="white">
                <use xlink:href="#path-1"></use>
            </mask>
            <use id="Oval" fill="#D8D8D8" xlink:href="#path-1"></use>
            <g id="Zcash" mask="url(#mask-2)">
                <path d="M19.140625,28 L8.859375,28 C3.959375,28 0,24.040625 0,19.140625 L0,8.859375 C0,3.959375 3.959375,0 8.859375,0 L19.140625,0 C24.040625,0 28,3.959375 28,8.859375 L28,19.140625 C28,24.040625 24.040625,28 19.140625,28 Z" id="Path" fill="url(#linearGradient-3)"></path>
                <g id="Group" transform="translate(8.750000, 4.375000)">
                    <g opacity="0.2" transform="translate(0.437500, 0.437500)" fill="#000000" id="Path">
                        <path d="M4.090625,2.7125 C4.090625,1.815625 4.090625,1.028125 4.090625,0.196875 C5.140625,0.196875 6.146875,0.196875 7.240625,0.196875 C7.240625,1.00625 7.240625,1.815625 7.240625,2.690625 C8.53125,2.690625 9.734375,2.690625 11.06875,2.690625 C10.9375,3.89375 11.375,5.053125 10.45625,6.16875 C8.640625,8.378125 6.978125,10.71875 5.271875,12.99375 C5.25,13.015625 5.25,13.059375 5.228125,13.190625 C7.240625,13.190625 9.23125,13.190625 11.24375,13.190625 C11.24375,14.371875 11.24375,15.44375 11.24375,16.603125 C9.93125,16.603125 8.61875,16.603125 7.240625,16.603125 C7.240625,17.45625 7.240625,18.221875 7.240625,19.053125 C6.16875,19.053125 5.184375,19.053125 4.1125,19.053125 C4.1125,18.265625 4.1125,17.5 4.1125,16.646875 C2.778125,16.646875 1.509375,16.646875 0.153125,16.646875 C0.21875,15.421875 -0.065625,14.2625 0.83125,13.16875 C2.66875,10.959375 4.353125,8.61875 6.08125,6.321875 C6.103125,6.278125 6.125,6.2125 6.16875,6.103125 C4.309375,6.103125 2.49375,6.103125 0.634375,6.103125 C0.634375,4.94375 0.634375,3.871875 0.634375,2.7125 C1.79375,2.7125 2.909375,2.7125 4.090625,2.7125 Z"></path>
                    </g>
                    <path d="M4.090625,2.7125 C4.090625,1.815625 4.090625,1.028125 4.090625,0.196875 C5.140625,0.196875 6.146875,0.196875 7.240625,0.196875 C7.240625,1.00625 7.240625,1.815625 7.240625,2.690625 C8.53125,2.690625 9.734375,2.690625 11.06875,2.690625 C10.9375,3.89375 11.375,5.053125 10.45625,6.16875 C8.640625,8.378125 6.978125,10.71875 5.271875,12.99375 C5.25,13.015625 5.25,13.059375 5.228125,13.190625 C7.240625,13.190625 9.23125,13.190625 11.24375,13.190625 C11.24375,14.371875 11.24375,15.44375 11.24375,16.603125 C9.93125,16.603125 8.61875,16.603125 7.240625,16.603125 C7.240625,17.45625 7.240625,18.221875 7.240625,19.053125 C6.16875,19.053125 5.184375,19.053125 4.1125,19.053125 C4.1125,18.265625 4.1125,17.5 4.1125,16.646875 C2.778125,16.646875 1.509375,16.646875 0.153125,16.646875 C0.21875,15.421875 -0.065625,14.2625 0.83125,13.16875 C2.66875,10.959375 4.353125,8.61875 6.08125,6.321875 C6.103125,6.278125 6.125,6.2125 6.16875,6.103125 C4.309375,6.103125 2.49375,6.103125 0.634375,6.103125 C0.634375,4.94375 0.634375,3.871875 0.634375,2.7125 C1.79375,2.7125 2.909375,2.7125 4.090625,2.7125 Z" id="Path" fill="#FFFFFF"></path>
                </g>
            </g>
        </g>
    </g>
</svg>