<?xml version="1.0" encoding="UTF-8"?>
<svg width="28px" height="28px" viewBox="0 0 28 28" version="1.1" xmlns="http://www.w3.org/2000/svg" xmlns:xlink="http://www.w3.org/1999/xlink">
    <!-- Generator: sketchtool 53.2 (72643) - https://sketchapp.com -->
    <title>AC3F17F1-A303-4885-B13B-4C4A688E6A78</title>
    <desc>Created with sketchtool.</desc>
    <defs>
        <circle id="path-1" cx="14" cy="14" r="14"></circle>
        <linearGradient x1="9.26734375%" y1="9.26734375%" x2="90.7326563%" y2="90.7326563%" id="linearGradient-3">
            <stop stop-color="#4A4B4C" offset="0%"></stop>
            <stop stop-color="#000000" offset="100%"></stop>
        </linearGradient>
    </defs>
    <g id="symbols" stroke="none" stroke-width="1" fill="none" fill-rule="evenodd">
        <g id="assets/icons/-coins-28px/-nem">
            <mask id="mask-2" fill="white">
                <use xlink:href="#path-1"></use>
            </mask>
            <use id="Oval" fill="#D8D8D8" xlink:href="#path-1"></use>
            <g id="NEM" mask="url(#mask-2)">
                <path d="M19.140625,28 L8.859375,28 C3.959375,28 0,24.040625 0,19.140625 L0,8.859375 C0,3.959375 3.959375,0 8.859375,0 L19.140625,0 C24.040625,0 28,3.959375 28,8.859375 L28,19.140625 C28,24.040625 24.040625,28 19.140625,28 Z" id="Path" fill="url(#linearGradient-3)"></path>
                <path d="M13.43125,22.028125 C13.475,22.05 13.540625,22.05 13.584375,22.05 C14.35,22.09375 15.071875,21.74375 15.684375,21.30625 C16.3625,20.846875 16.975,20.278125 17.521875,19.665625 C17.675,19.490625 17.80625,19.315625 17.915625,19.11875 C18.1125,18.746875 18.134375,18.33125 18.134375,17.915625 C18.134375,17.084375 17.959375,16.23125 17.54375,15.509375 C17.128125,14.7875 16.471875,14.196875 15.684375,13.934375 C14.83125,13.65 13.890625,13.759375 12.99375,13.978125 C12.11875,14.196875 11.265625,14.525 10.36875,14.65625 C9.8,14.74375 9.209375,14.721875 8.6625,14.56875 C8.421875,14.503125 8.09375,14.240625 7.875,14.21875 C7.590625,14.196875 7.678125,14.6125 7.721875,14.83125 C8.028125,15.96875 8.553125,17.040625 9.275,17.98125 C10.390625,19.446875 11.921875,20.540625 13.2125,21.853125 C13.25625,21.896875 13.321875,21.9625 13.3875,21.984375 C13.409375,22.028125 13.409375,22.028125 13.43125,22.028125 Z" id="Path" fill="#2DBCAF"></path>
                <path d="M22.575,8.421875 C22.553125,8.159375 22.465625,7.896875 22.290625,7.7 C22.00625,7.415625 21.56875,7.371875 21.196875,7.30625 C20.321875,7.13125 19.534375,6.628125 18.6375,6.51875 C16.23125,6.2125 14.503125,8.575 14.30625,10.71875 C14.240625,11.484375 14.39375,12.29375 14.853125,12.928125 C15.3125,13.5625 15.990625,13.95625 16.603125,14.415625 C17.15,14.83125 17.675,15.35625 18.025,15.946875 C18.375,16.5375 18.571875,17.259375 18.484375,17.959375 C18.4625,18.090625 18.440625,18.24375 18.4625,18.375 C18.484375,18.50625 18.571875,18.659375 18.703125,18.68125 C18.9,18.725 19.075,18.55 19.184375,18.375 C20.803125,16.121875 21.91875,13.496875 22.421875,10.7625 C22.553125,10.0625 22.640625,9.340625 22.61875,8.640625 C22.575,8.596875 22.575,8.509375 22.575,8.421875 Z" id="Path" fill="#6CB2E2"></path>
                <path d="M13.934375,6.015625 C13.278125,6.08125 12.621875,6.234375 11.9875,6.365625 C10.828125,6.60625 9.66875,6.825 8.53125,7.153125 C7.9625,7.328125 7.39375,7.503125 6.846875,7.74375 C6.3,7.984375 6.125,8.246875 6.2125,8.859375 C6.3875,10.15 6.628125,11.440625 6.95625,12.709375 C7.065625,13.103125 7.175,13.496875 7.4375,13.78125 C7.7,14.0875 8.09375,14.240625 8.4875,14.35 C9.296875,14.56875 10.15,14.56875 10.98125,14.39375 C11.76875,14.240625 12.5125,13.9125 13.08125,13.34375 C13.628125,12.796875 13.95625,12.053125 14.153125,11.309375 C14.35,10.565625 14.4375,9.778125 14.590625,9.0125 C14.7,8.465625 14.853125,7.91875 15.203125,7.48125 C15.575,7 16.14375,6.69375 16.734375,6.65 C16.1,6.146875 15.246875,5.95 14.415625,5.971875 C14.240625,5.99375 14.0875,5.99375 13.934375,6.015625 Z" id="Path" fill="#F5A81C"></path>
                <g id="Group" transform="translate(5.031250, 5.031250)" fill-rule="nonzero">
                    <g opacity="0.2" transform="translate(0.437500, 0.437500)" fill="#000000" id="Shape">
                        <path d="M17.696875,2.428125 C15.071875,0.9625 12.184375,0.196875 9.121875,0.153125 L9.1,0.153125 L9.078125,0.153125 C8.815625,0.175 8.53125,0.196875 8.26875,0.21875 C7.678125,0.2625 7.065625,0.328125 6.453125,0.415625 C4.41875,0.7 2.428125,1.378125 0.525,2.45 C0.328125,2.559375 0.175,2.821875 0.175,3.0625 L0.175,3.15 C0.21875,3.80625 0.240625,4.484375 0.30625,5.1625 C0.459375,6.496875 0.809375,7.875 1.35625,9.23125 C2.821875,12.90625 5.29375,15.815625 8.70625,17.89375 C8.79375,17.9375 8.925,18.003125 9.1,18.003125 C9.23125,18.003125 9.340625,17.959375 9.471875,17.89375 C10.521875,17.259375 11.41875,16.58125 12.228125,15.859375 C14,14.2625 15.378125,12.403125 16.3625,10.303125 C17.434375,8.00625 18.003125,5.578125 18.025,3.0625 C18.046875,2.8875 18.003125,2.603125 17.696875,2.428125 Z M11.221875,14.896875 C10.80625,15.225 10.346875,15.53125 9.93125,15.8375 C9.66875,16.034375 9.40625,16.209375 9.121875,16.40625 C9.121875,16.40625 9.1,16.40625 9.1,16.40625 C9.078125,16.40625 9.078125,16.384375 9.034375,16.384375 C6.78125,15.00625 4.9875,13.190625 3.71875,10.98125 C3.521875,10.63125 3.325,10.2375 3.15,9.865625 C3.28125,9.93125 3.4125,9.975 3.565625,10.040625 C4.090625,10.215625 4.59375,10.325 5.11875,10.325 C5.884375,10.325 6.671875,10.128125 7.415625,9.7125 C7.9625,9.40625 8.53125,9.275 9.14375,9.275 L9.165625,9.275 C10.63125,9.275 11.921875,10.325 12.271875,11.725 C12.490625,12.621875 12.359375,13.496875 11.85625,14.284375 C11.725,14.503125 11.4625,14.721875 11.221875,14.896875 Z M10.15,1.70625 C10.28125,1.70625 10.390625,1.728125 10.521875,1.728125 C9.1875,2.603125 8.4875,3.871875 8.421875,5.55625 C8.35625,7 7.74375,7.984375 6.51875,8.575 C6.08125,8.79375 5.621875,8.903125 5.140625,8.903125 C5.140625,8.903125 5.140625,8.903125 5.140625,8.903125 C3.85,8.903125 2.66875,8.159375 2.165625,7 C2.0125,6.628125 1.946875,6.16875 1.903125,5.753125 C1.8375,5.29375 1.815625,4.8125 1.771875,4.353125 C1.75,4.090625 1.728125,3.85 1.70625,3.609375 C3.084375,2.84375 4.571875,2.296875 6.08125,1.990625 C7.0875,1.79375 8.115625,1.684375 9.14375,1.684375 C9.471875,1.6625 9.8,1.684375 10.15,1.70625 Z M11.50625,8.509375 C10.63125,7.9625 10.10625,7.2625 9.8875,6.321875 C9.559375,4.94375 10.28125,3.4125 11.528125,2.75625 C12.053125,2.49375 12.578125,2.340625 13.08125,2.340625 C13.475,2.340625 13.846875,2.40625 14.240625,2.559375 C14.765625,2.75625 15.290625,3.01875 15.79375,3.259375 C16.034375,3.36875 16.275,3.478125 16.515625,3.5875 C16.471875,6.69375 15.53125,9.559375 13.759375,12.075 C13.628125,10.54375 12.884375,9.340625 11.50625,8.509375 Z"></path>
                    </g>
                    <path d="M17.696875,2.428125 C15.071875,0.9625 12.184375,0.196875 9.121875,0.153125 L9.1,0.153125 L9.078125,0.153125 C8.815625,0.175 8.53125,0.196875 8.26875,0.21875 C7.678125,0.2625 7.065625,0.328125 6.453125,0.415625 C4.41875,0.7 2.428125,1.378125 0.525,2.45 C0.328125,2.559375 0.175,2.821875 0.175,3.0625 L0.175,3.15 C0.21875,3.80625 0.240625,4.484375 0.30625,5.1625 C0.459375,6.496875 0.809375,7.875 1.35625,9.23125 C2.821875,12.90625 5.29375,15.815625 8.70625,17.89375 C8.79375,17.9375 8.925,18.003125 9.1,18.003125 C9.23125,18.003125 9.340625,17.959375 9.471875,17.89375 C10.521875,17.259375 11.41875,16.58125 12.228125,15.859375 C14,14.2625 15.378125,12.403125 16.3625,10.303125 C17.434375,8.00625 18.003125,5.578125 18.025,3.0625 C18.046875,2.8875 18.003125,2.603125 17.696875,2.428125 Z M11.221875,14.896875 C10.80625,15.225 10.346875,15.53125 9.93125,15.8375 C9.66875,16.034375 9.40625,16.209375 9.121875,16.40625 C9.121875,16.40625 9.1,16.40625 9.1,16.40625 C9.078125,16.40625 9.078125,16.384375 9.034375,16.384375 C6.78125,15.00625 4.9875,13.190625 3.71875,10.98125 C3.521875,10.63125 3.325,10.2375 3.15,9.865625 C3.28125,9.93125 3.4125,9.975 3.565625,10.040625 C4.090625,10.215625 4.59375,10.325 5.11875,10.325 C5.884375,10.325 6.671875,10.128125 7.415625,9.7125 C7.9625,9.40625 8.53125,9.275 9.14375,9.275 L9.165625,9.275 C10.63125,9.275 11.921875,10.325 12.271875,11.725 C12.490625,12.621875 12.359375,13.496875 11.85625,14.284375 C11.725,14.503125 11.4625,14.721875 11.221875,14.896875 Z M10.15,1.70625 C10.28125,1.70625 10.390625,1.728125 10.521875,1.728125 C9.1875,2.603125 8.4875,3.871875 8.421875,5.55625 C8.35625,7 7.74375,7.984375 6.51875,8.575 C6.08125,8.79375 5.621875,8.903125 5.140625,8.903125 C5.140625,8.903125 5.140625,8.903125 5.140625,8.903125 C3.85,8.903125 2.66875,8.159375 2.165625,7 C2.0125,6.628125 1.946875,6.16875 1.903125,5.753125 C1.8375,5.29375 1.815625,4.8125 1.771875,4.353125 C1.75,4.090625 1.728125,3.85 1.70625,3.609375 C3.084375,2.84375 4.571875,2.296875 6.08125,1.990625 C7.0875,1.79375 8.115625,1.684375 9.14375,1.684375 C9.471875,1.6625 9.8,1.684375 10.15,1.70625 Z M11.50625,8.509375 C10.63125,7.9625 10.10625,7.2625 9.8875,6.321875 C9.559375,4.94375 10.28125,3.4125 11.528125,2.75625 C12.053125,2.49375 12.578125,2.340625 13.08125,2.340625 C13.475,2.340625 13.846875,2.40625 14.240625,2.559375 C14.765625,2.75625 15.290625,3.01875 15.79375,3.259375 C16.034375,3.36875 16.275,3.478125 16.515625,3.5875 C16.471875,6.715625 15.553125,9.559375 13.78125,12.096875 C13.628125,10.54375 12.884375,9.340625 11.50625,8.509375 Z" id="Shape" fill="#FFFFFF"></path>
                </g>
            </g>
        </g>
    </g>
</svg>