<?xml version="1.0" encoding="UTF-8"?>
<svg width="28px" height="28px" viewBox="0 0 28 28" version="1.1" xmlns="http://www.w3.org/2000/svg" xmlns:xlink="http://www.w3.org/1999/xlink">
    <!-- Generator: sketchtool 53.2 (72643) - https://sketchapp.com -->
    <title>DD0E0205-12F1-4B4B-84DD-7D36A3E7C30F</title>
    <desc>Created with sketchtool.</desc>
    <defs>
        <circle id="path-1" cx="14" cy="14" r="14"></circle>
        <linearGradient x1="9.26734375%" y1="9.26734375%" x2="90.7326563%" y2="90.7326563%" id="linearGradient-3">
            <stop stop-color="#F9A038" offset="0%"></stop>
            <stop stop-color="#F47C36" offset="100%"></stop>
        </linearGradient>
    </defs>
    <g id="symbols" stroke="none" stroke-width="1" fill="none" fill-rule="evenodd">
        <g id="assets/icons/-coins-28px/--bitcoin">
            <mask id="mask-2" fill="white">
                <use xlink:href="#path-1"></use>
            </mask>
            <use id="Oval" fill="#D8D8D8" xlink:href="#path-1"></use>
            <g id="Bitcoin" mask="url(#mask-2)">
                <path d="M19.140625,28 L8.859375,28 C3.959375,28 0,24.040625 0,19.140625 L0,8.859375 C0,3.959375 3.959375,0 8.859375,0 L19.140625,0 C24.040625,0 28,3.959375 28,8.859375 L28,19.140625 C28,24.040625 24.040625,28 19.140625,28 Z" id="Path" fill="url(#linearGradient-3)"></path>
                <g id="Group" transform="translate(7.875000, 5.031250)" fill-rule="nonzero">
                    <g opacity="0.2" transform="translate(0.437500, 0.437500)" fill="#000000" id="Shape">
                        <path d="M12.753125,10.5875 C12.64375,9.8 12.25,9.1875 11.571875,8.79375 C11.265625,8.61875 10.89375,8.4875 10.54375,8.334375 C10.5875,8.3125 10.609375,8.26875 10.63125,8.26875 C12.359375,7.371875 12.20625,4.703125 10.959375,3.784375 C10.45625,3.4125 9.8875,3.171875 9.275,3.040625 C8.8375,2.953125 8.421875,2.8875 7.9625,2.8 C7.9625,2.034375 7.984375,0.940625 7.984375,0.0875 L6.34375,0.0875 C6.34375,0.91875 6.321875,1.990625 6.321875,2.734375 C5.8625,2.734375 5.446875,2.734375 5.03125,2.734375 C5.03125,1.96875 5.03125,0.91875 5.053125,0.0875 L3.434375,0.0875 C3.434375,0.9625 3.4125,2.0125 3.4125,2.778125 C2.296875,2.778125 1.225,2.75625 0.13125,2.75625 C0.13125,3.346875 0.13125,3.915625 0.109375,4.484375 C0.35,4.484375 0.546875,4.484375 0.765625,4.484375 C0.9625,4.484375 1.18125,4.484375 1.378125,4.50625 C1.946875,4.55 2.23125,4.85625 2.23125,5.425 C2.209375,7.74375 2.1875,10.084375 2.165625,12.403125 C2.165625,12.90625 1.946875,13.125 1.44375,13.125 C1.09375,13.125 0.721875,13.125 0.35,13.125 C0.240625,13.78125 0.13125,14.415625 7.10542736e-15,15.071875 C1.09375,15.09375 2.1875,15.09375 3.28125,15.115625 C3.28125,15.946875 3.28125,17.01875 3.259375,17.89375 L4.878125,17.89375 C4.878125,17.01875 4.9,15.990625 4.9,15.159375 C5.359375,15.18125 5.775,15.18125 6.190625,15.203125 C6.190625,16.034375 6.16875,17.040625 6.16875,17.89375 L7.7875,17.89375 C7.7875,17.01875 7.809375,15.990625 7.809375,15.18125 C7.875,15.18125 7.91875,15.159375 7.940625,15.159375 C8.70625,15.028125 9.515625,14.9625 10.259375,14.7875 C11.24375,14.546875 12.03125,13.978125 12.425,12.99375 C12.796875,12.20625 12.8625,11.41875 12.753125,10.5875 Z M5.03125,4.659375 C6.0375,4.659375 7.021875,4.571875 7.9625,4.9875 C8.575,5.25 8.88125,5.753125 8.8375,6.365625 C8.79375,7 8.421875,7.459375 7.7875,7.678125 C6.890625,7.9625 5.971875,7.9625 5.009375,7.91875 C5.009375,6.825 5.03125,5.775 5.03125,4.659375 Z M8.575,12.775 C7.678125,13.16875 6.715625,13.16875 5.775,13.190625 C5.5125,13.190625 5.25,13.16875 4.94375,13.16875 C4.965625,11.965625 4.965625,10.784375 4.9875,9.58125 C6.2125,9.58125 7.4375,9.49375 8.596875,9.996875 C9.1875,10.259375 9.5375,10.71875 9.5375,11.396875 C9.5375,12.075 9.1875,12.5125 8.575,12.775 Z"></path>
                    </g>
                    <path d="M12.753125,10.5875 C12.64375,9.8 12.25,9.1875 11.571875,8.79375 C11.265625,8.61875 10.89375,8.4875 10.54375,8.334375 C10.5875,8.3125 10.609375,8.26875 10.63125,8.26875 C12.359375,7.371875 12.20625,4.703125 10.959375,3.784375 C10.45625,3.4125 9.8875,3.171875 9.275,3.040625 C8.8375,2.953125 8.421875,2.8875 7.9625,2.8 C7.9625,2.034375 7.984375,0.940625 7.984375,0.0875 L6.34375,0.0875 C6.34375,0.91875 6.321875,1.990625 6.321875,2.734375 C5.8625,2.734375 5.446875,2.734375 5.03125,2.734375 C5.03125,1.96875 5.03125,0.91875 5.053125,0.0875 L3.434375,0.0875 C3.434375,0.9625 3.4125,2.0125 3.4125,2.778125 C2.296875,2.778125 1.225,2.75625 0.13125,2.75625 C0.13125,3.346875 0.13125,3.915625 0.109375,4.484375 C0.35,4.484375 0.546875,4.484375 0.765625,4.484375 C0.9625,4.484375 1.18125,4.484375 1.378125,4.50625 C1.946875,4.55 2.23125,4.85625 2.23125,5.425 C2.209375,7.74375 2.1875,10.084375 2.165625,12.403125 C2.165625,12.90625 1.946875,13.125 1.44375,13.125 C1.09375,13.125 0.721875,13.125 0.35,13.125 C0.240625,13.78125 0.13125,14.415625 7.10542736e-15,15.071875 C1.09375,15.09375 2.1875,15.09375 3.28125,15.115625 C3.28125,15.946875 3.28125,17.01875 3.259375,17.89375 L4.878125,17.89375 C4.878125,17.01875 4.9,15.990625 4.9,15.159375 C5.359375,15.18125 5.775,15.18125 6.190625,15.203125 C6.190625,16.034375 6.16875,17.040625 6.16875,17.89375 L7.7875,17.89375 C7.7875,17.01875 7.809375,15.990625 7.809375,15.18125 C7.875,15.18125 7.91875,15.159375 7.940625,15.159375 C8.70625,15.028125 9.515625,14.9625 10.259375,14.7875 C11.24375,14.546875 12.03125,13.978125 12.425,12.99375 C12.796875,12.20625 12.8625,11.41875 12.753125,10.5875 Z M5.03125,4.659375 C6.0375,4.659375 7.021875,4.571875 7.9625,4.9875 C8.575,5.25 8.88125,5.753125 8.8375,6.365625 C8.79375,7 8.421875,7.459375 7.7875,7.678125 C6.890625,7.9625 5.971875,7.9625 5.009375,7.91875 C5.009375,6.825 5.03125,5.775 5.03125,4.659375 Z M8.575,12.775 C7.678125,13.16875 6.715625,13.16875 5.775,13.190625 C5.5125,13.190625 5.25,13.16875 4.94375,13.16875 C4.965625,11.965625 4.965625,10.784375 4.9875,9.58125 C6.2125,9.58125 7.4375,9.49375 8.596875,9.996875 C9.1875,10.259375 9.5375,10.71875 9.5375,11.396875 C9.5375,12.075 9.1875,12.5125 8.575,12.775 Z" id="Shape" fill="#FFFFFF"></path>
                </g>
            </g>
        </g>
    </g>
</svg>