<?xml version="1.0" encoding="UTF-8"?>
<svg width="28px" height="28px" viewBox="0 0 28 28" version="1.1" xmlns="http://www.w3.org/2000/svg" xmlns:xlink="http://www.w3.org/1999/xlink">
    <!-- Generator: sketchtool 53.2 (72643) - https://sketchapp.com -->
    <title>C5286A3D-57EC-4CB6-B2F8-1859791208E5</title>
    <desc>Created with sketchtool.</desc>
    <defs>
        <circle id="path-1" cx="14" cy="14" r="14"></circle>
        <linearGradient x1="9.26734375%" y1="9.26734375%" x2="90.7326563%" y2="90.7326563%" id="linearGradient-3">
            <stop stop-color="#616264" offset="0%"></stop>
            <stop stop-color="#000000" offset="100%"></stop>
        </linearGradient>
    </defs>
    <g id="symbols" stroke="none" stroke-width="1" fill="none" fill-rule="evenodd">
        <g id="assets/icons/-coins-28px/--bytecoin">
            <mask id="mask-2" fill="white">
                <use xlink:href="#path-1"></use>
            </mask>
            <use id="Oval" fill="#D8D8D8" xlink:href="#path-1"></use>
            <g id="Bytecoin" mask="url(#mask-2)">
                <path d="M19.140625,28 L8.859375,28 C3.959375,28 0,24.040625 0,19.140625 L0,8.859375 C0,3.959375 3.959375,0 8.859375,0 L19.140625,0 C24.040625,0 28,3.959375 28,8.859375 L28,19.140625 C28,24.040625 24.040625,28 19.140625,28 Z" id="Path" fill="url(#linearGradient-3)"></path>
                <g id="Group" transform="translate(5.031250, 5.906250)" fill-rule="nonzero">
                    <g opacity="0.2" transform="translate(0.437500, 0.437500)" fill="#000000" id="Shape">
                        <path d="M4.440625,15.990625 C4.440625,14.65625 4.440625,13.3875 4.440625,12.03125 C2.996875,12.03125 1.575,12.03125 0.13125,12.03125 C0.13125,11.24375 0.13125,10.5 0.13125,9.734375 C1.553125,9.734375 2.953125,9.734375 4.396875,9.734375 C4.396875,8.4875 4.396875,7.284375 4.396875,6.0375 C2.996875,6.0375 1.575,6.0375 0.13125,6.0375 C0.13125,5.25 0.13125,4.50625 0.13125,3.71875 C1.553125,3.71875 2.953125,3.71875 4.41875,3.71875 C4.41875,2.49375 4.41875,1.290625 4.41875,0.0875 C4.55,0.065625 4.6375,0.065625 4.725,0.065625 C7.0875,0.065625 9.45,0.04375 11.8125,0.0875 C12.90625,0.109375 13.978125,0.35 14.896875,1.028125 C16.734375,2.384375 16.975,4.790625 15.44375,6.496875 C15.3125,6.65 15.159375,6.803125 15.00625,6.95625 C15.8375,7.35 16.515625,7.853125 17.01875,8.596875 C18.4625,10.696875 17.828125,13.3875 15.553125,14.83125 C14.2625,15.640625 12.81875,15.96875 11.353125,16.0125 C9.121875,16.078125 6.890625,16.034375 4.659375,16.034375 C4.615625,16.034375 4.55,16.0125 4.440625,15.990625 Z M7.48125,8.771875 C7.48125,10.346875 7.48125,11.878125 7.48125,13.34375 C9.034375,13.34375 10.5875,13.409375 12.096875,13.321875 C12.73125,13.278125 13.409375,13.0375 13.978125,12.73125 C15.203125,12.075 15.290625,10.434375 14.153125,9.646875 C13.628125,9.275 12.99375,9.0125 12.359375,8.859375 C10.7625,8.465625 9.121875,8.684375 7.48125,8.771875 Z M7.48125,6.846875 C8.421875,6.78125 9.296875,6.759375 10.171875,6.65 C10.828125,6.5625 11.50625,6.409375 12.11875,6.16875 C12.971875,5.81875 13.3875,5.03125 13.3,4.178125 C13.2125,3.4125 12.665625,2.778125 11.790625,2.58125 C10.36875,2.23125 8.925,2.45 7.459375,2.384375 C7.48125,3.871875 7.48125,5.315625 7.48125,6.846875 Z"></path>
                    </g>
                    <path d="M4.440625,15.990625 C4.440625,14.65625 4.440625,13.3875 4.440625,12.03125 C2.996875,12.03125 1.575,12.03125 0.13125,12.03125 C0.13125,11.24375 0.13125,10.5 0.13125,9.734375 C1.553125,9.734375 2.953125,9.734375 4.396875,9.734375 C4.396875,8.4875 4.396875,7.284375 4.396875,6.0375 C2.996875,6.0375 1.575,6.0375 0.13125,6.0375 C0.13125,5.25 0.13125,4.50625 0.13125,3.71875 C1.553125,3.71875 2.953125,3.71875 4.41875,3.71875 C4.41875,2.49375 4.41875,1.290625 4.41875,0.0875 C4.55,0.065625 4.6375,0.065625 4.725,0.065625 C7.0875,0.065625 9.45,0.04375 11.8125,0.0875 C12.90625,0.109375 13.978125,0.35 14.896875,1.028125 C16.734375,2.384375 16.975,4.790625 15.44375,6.496875 C15.3125,6.65 15.159375,6.803125 15.00625,6.95625 C15.8375,7.35 16.515625,7.853125 17.01875,8.596875 C18.4625,10.696875 17.828125,13.3875 15.553125,14.83125 C14.2625,15.640625 12.81875,15.96875 11.353125,16.0125 C9.121875,16.078125 6.890625,16.034375 4.659375,16.034375 C4.615625,16.034375 4.55,16.0125 4.440625,15.990625 Z M7.48125,8.771875 C7.48125,10.346875 7.48125,11.878125 7.48125,13.34375 C9.034375,13.34375 10.5875,13.409375 12.096875,13.321875 C12.73125,13.278125 13.409375,13.0375 13.978125,12.73125 C15.203125,12.075 15.290625,10.434375 14.153125,9.646875 C13.628125,9.275 12.99375,9.0125 12.359375,8.859375 C10.7625,8.465625 9.121875,8.684375 7.48125,8.771875 Z M7.48125,6.846875 C8.421875,6.78125 9.296875,6.759375 10.171875,6.65 C10.828125,6.5625 11.50625,6.409375 12.11875,6.16875 C12.971875,5.81875 13.3875,5.03125 13.3,4.178125 C13.2125,3.4125 12.665625,2.778125 11.790625,2.58125 C10.36875,2.23125 8.925,2.45 7.459375,2.384375 C7.48125,3.871875 7.48125,5.315625 7.48125,6.846875 Z" id="Shape" fill="#FFFFFF"></path>
                </g>
            </g>
        </g>
    </g>
</svg>