<?xml version="1.0" encoding="UTF-8"?>
<svg width="16px" height="16px" viewBox="0 0 16 16" version="1.1" xmlns="http://www.w3.org/2000/svg" xmlns:xlink="http://www.w3.org/1999/xlink">
    <!-- Generator: sketchtool 53.2 (72643) - https://sketchapp.com -->
    <title>0D81A92A-3FFE-4C88-93DC-34716EC007A4</title>
    <desc>Created with sketchtool.</desc>
    <defs>
        <path d="M8.27454545,6 L11.6860227,2.58852273 C12.1046591,2.16988636 12.1046591,1.49113636 11.6860227,1.07215909 L10.9278409,0.313977273 C10.5092045,-0.104659091 9.83045455,-0.104659091 9.41147727,0.313977273 L6,3.72545455 L2.58852273,0.313977273 C2.16988636,-0.104659091 1.49113636,-0.104659091 1.07215909,0.313977273 L0.313977273,1.07215909 C-0.104659091,1.49079545 -0.104659091,2.16954545 0.313977273,2.58852273 L3.72545455,6 L0.313977273,9.41147727 C-0.104659091,9.83011364 -0.104659091,10.5088636 0.313977273,10.9278409 L1.07215909,11.6860227 C1.49079545,12.1046591 2.16988636,12.1046591 2.58852273,11.6860227 L6,8.27454545 L9.41147727,11.6860227 C9.83011364,12.1046591 10.5092045,12.1046591 10.9278409,11.6860227 L11.6860227,10.9278409 C12.1046591,10.5092045 12.1046591,9.83045455 11.6860227,9.41147727 L8.27454545,6 Z" id="path-1"></path>
    </defs>
    <g id="symbols" stroke="none" stroke-width="1" fill="none" fill-rule="evenodd">
        <g id="assets/icons/-16px-/-cross">
            <g id="times" transform="translate(2.000000, 2.000000)">
                <mask id="mask-2" fill="white">
                    <use xlink:href="#path-1"></use>
                </mask>
                <use fill="#D3000D" xlink:href="#path-1"></use>
            </g>
        </g>
    </g>
</svg>