<?xml version="1.0" encoding="UTF-8"?>
<svg width="21px" height="18px" viewBox="0 0 21 18" version="1.1" xmlns="http://www.w3.org/2000/svg" xmlns:xlink="http://www.w3.org/1999/xlink">
    <!-- Generator: sketchtool 53.2 (72643) - https://sketchapp.com -->
    <title>F7A90DB1-EE92-404B-952B-9217E4B7CCD4</title>
    <desc>Created with sketchtool.</desc>
    <defs>
        <path d="M9.00347222,0.729166625 L6.73611109,5.32638887 L1.6631944,6.06597221 C0.753472176,6.19791665 0.388888841,7.31944444 1.04861107,7.96180555 L4.71874997,11.5381945 L3.85069441,16.5902778 C3.69444441,17.5034723 4.65624997,18.1875 5.46180553,17.7604167 L10,15.375 L14.5381945,17.7604167 C15.34375,18.1840278 16.3055556,17.5034723 16.1493056,16.5902778 L15.28125,11.5381945 L18.9513889,7.96180555 C19.6111112,7.31944444 19.2465278,6.19791665 18.3368056,6.06597221 L13.2638889,5.32638887 L10.9965278,0.729166625 C10.5902778,-0.0902778232 9.41319444,-0.10069449 9.00347222,0.729166625 Z" id="path-1"></path>
        <path d="M18.3368056,6.06597221 L13.2638889,5.32638887 L10.9965278,0.729166625 C10.5902778,-0.0902778232 9.41319444,-0.10069449 9.00347222,0.729166625 L6.73611109,5.32638887 L1.6631944,6.06597221 C0.753472176,6.19791665 0.388888841,7.31944444 1.04861107,7.96180555 L4.71874997,11.5381945 L3.85069441,16.5902778 C3.69444441,17.5034723 4.65624997,18.1875 5.46180553,17.7604167 L10,15.375 L14.5381945,17.7604167 C15.34375,18.1840278 16.3055556,17.5034723 16.1493056,16.5902778 L15.28125,11.5381945 L18.9513889,7.96180555 C19.6111112,7.31944444 19.2465278,6.19791665 18.3368056,6.06597221 L18.3368056,6.06597221 Z M13.4930556,10.9548611 L14.3159722,15.7604167 L10,13.4930556 L5.68402776,15.7604167 L6.50694443,10.9548611 L3.01388885,7.55208333 L7.84027777,6.85069443 L10,2.47569441 L12.1597222,6.85069443 L16.9861111,7.55208333 L13.4930556,10.9548611 Z" id="path-3"></path>
    </defs>
    <g id="symbols" stroke="none" stroke-width="1" fill="none" fill-rule="evenodd">
        <g id="assets/icons/-rating-/-star-/-empty">
            <g id="icon-/-rating-/-star" transform="translate(0.500000, 0.000000)">
                <mask id="mask-2" fill="white">
                    <use xlink:href="#path-1"></use>
                </mask>
                <g id="star"></g>
            </g>
            <g id="icon-/-rating-/-star-/-empty">
                <mask id="mask-4" fill="white">
                    <use xlink:href="#path-3"></use>
                </mask>
                <g id="star" fill-rule="nonzero"></g>
                <g id="🎨-color" mask="url(#mask-4)" fill="#EB9A11">
                    <g transform="translate(-2.000000, -3.000000)" id="🎨-Color">
                        <rect x="0" y="0" width="24" height="24"></rect>
                    </g>
                </g>
            </g>
        </g>
    </g>
</svg>